<?xml version="1.0" encoding="utf-8"?>
<!-- Generator: Adobe Illustrator 25.2.0, SVG Export Plug-In . SVG Version: 6.00 Build 0)  -->
<svg version="1.1" id="Layer_1" xmlns="http://www.w3.org/2000/svg" xmlns:xlink="http://www.w3.org/1999/xlink" x="0px" y="0px"
	 viewBox="0 0 960 560" style="enable-background:new 0 0 960 560;" xml:space="preserve">
<style type="text/css">
	.st0{fill:#22435C;}
	.st1{fill:#0096FD;}
</style>
<g>
	<g>
		<path d="M505.14,243.12v-45.87c-0.01-0.4,0-0.8-0.01-1.2c-0.16-9.34,0.09-18.7-0.08-28.04c-0.2-10.68-9.29-19.35-20.13-19.37
			c-22.24-0.04-44.48-0.01-66.73-0.01c-6.2,0-12.4-0.02-18.59,0.01c-11.4,0.05-20.36,9-20.4,20.38c-0.03,9.1,0,18.19-0.03,27.29
			c0,0.63-0.35,1.27-0.57,1.89c-0.08,0.23-0.31,0.44-0.32,0.66c-0.02,2.5-0.65,5.23,0.17,7.43c0.88,2.36,0.5,4.56,0.7,6.83
			c0.05,0.52-0.33,1.08-0.49,1.63c-0.16,0.56-0.43,1.13-0.43,1.69c-0.03,4.9-0.03,9.8,0,14.69c0,0.56,0.19,1.18,0.46,1.67
			c0.72,1.33,0.75,2.57-0.01,3.9c-0.28,0.49-0.45,1.11-0.45,1.68c-0.03,4.9-0.02,9.8-0.02,14.69c0,0.35-0.08,0.81,0.11,1.02
			c1.33,1.56,0.84,3.41,0.84,5.15c0.02,41.69,0.04,83.37,0,125.06c-0.01,7.48,2.64,13.54,8.76,17.94c3.38,2.43,7.21,3.65,11.38,3.65
			c28.54,0.02,57.08,0.04,85.62,0c11.19-0.02,20.14-9.05,20.16-20.29c0.03-22.34,0.01-44.68,0.01-67.03c0-22.44,0-44.88,0-67.33
			c0.1-0.54,0.17-1.08,0.26-1.62v-6.51H505.14z M483.82,403.75c-27.89,0.01-55.78,0.01-83.67-0.01c-1.34,0-2.71-0.08-4.02-0.34
			c-8.8-1.74-14.73-9.08-14.73-18.21c-0.01-35.99,0-71.98,0-107.97c0-35.99-0.01-71.98,0.01-107.97c0-10.54,7.97-18.5,18.52-18.5
			c28.14-0.01,56.28-0.02,84.42,0.03c1.83,0,3.71,0.24,5.47,0.73c7.98,2.22,13.17,9.36,13.17,17.96c0,71.68,0,143.35,0,215.03
			C502.97,395.97,495.26,403.74,483.82,403.75z"/>
		<rect x="377.41" y="196.72" width="2.47" height="60.23"/>
		<rect x="505" y="226.28" width="2.17" height="25.13"/>
		<path d="M486.3,160.53h-20.53c-2.11,0-4.04,0.86-5.42,2.24c-1.39,1.39-2.24,3.31-2.24,5.42c0,4.23,3.42,7.67,7.67,7.67h20.53
			c2.11,0,4.04-0.86,5.42-2.24c1.39-1.39,2.24-3.31,2.24-5.42C493.97,163.97,490.53,160.53,486.3,160.53z M465.9,172.78
			c-2.53,0-4.58-2.05-4.58-4.58c0-2.52,2.05-4.57,4.58-4.57c2.53,0,4.57,2.05,4.57,4.57C470.47,170.73,468.43,172.78,465.9,172.78z
			 M486.17,172.78c-2.53,0-4.58-2.05-4.58-4.58c0-2.52,2.05-4.57,4.58-4.57s4.57,2.05,4.57,4.57
			C490.74,170.73,488.7,172.78,486.17,172.78z"/>
	</g>
	<g>
		<path class="st0" d="M193.19,266.77l-24.9,80.45c0,0-0.16-0.16-0.16-0.31c-0.47,0.16-0.78,0.31-0.94,0.63
			c-0.16,0.47-0.31,0.78-0.63,1.1l0.78,0.47h0.47l-0.63,1.72l-0.31,0.47c-0.16,0.31-0.31,0.63-0.31,0.78s0,0.31,0.16,0.47
			l-3.45,10.96c-0.47,1.57-1.41,2.19-2.98,2.35l-22.08,0.47c-1.88,0-2.98-0.78-3.29-2.5l-11.28-51.65l-5.95-29.11l0.31-0.31
			l-0.47-0.16l-1.72-8.45v-0.31l-2.51-11.74c-0.31-2.19,1.1-3.91,3.13-3.91h18.64c1.72,0,2.66,0.78,3.13,2.5l2.82,11.74h-0.94v0.63
			c0.16,0,0.16,0.16,0.16,0.31h0.94v-0.16l0.31,1.1h-0.63v0.31h0.63l9.71,41.16l18.32-57.75c0.47-1.72,2.35-2.82,4.07-2.03
			l1.25,0.47c-0.78,0.31-1.1,0.94-0.94,1.88c0.16,0.94,0.16,1.88-0.16,2.5c-0.16,0.31-0.47,0.47-0.94,0.63
			c-0.63,0.31-1.1,0.94-0.78,1.56c0.16,0.31,0.16,0.63,0.16,0.78c0,0.16,0,0.31-0.16,0.31c-0.47,0.31-0.47,0.47-0.47,0.31v2.19
			c1.72-0.94,2.82-1.57,3.29-2.35c0-0.16,0.16-0.31,0.31-0.31c0.16-0.16,0.31-0.31,0.63-0.47c0.31-0.47,0.47-1.25,0.47-2.03
			c0-0.16,0-0.31-0.31-0.31c0,0-0.16-0.16-0.16-0.31v-4.07l15.51,6.1C193.19,263.49,193.82,264.9,193.19,266.77z M116.92,269.44
			c0.16-0.16,0.16-0.31,0-0.47h-0.63C116.3,269.12,116.77,269.44,116.92,269.44z M117.39,270.22l-0.47-0.16l-0.16,0.16h-0.16
			C116.77,270.53,117.08,270.53,117.39,270.22z M120.21,289c0-0.31-0.16-0.63-0.31-0.78h-0.63c0,0-0.16,0.16-0.47,0.16l0.16,0.63
			H120.21z M122.72,272.57c-1.72-0.47-1.57-0.31-1.72-0.31s-0.31,0-0.63,0.16l-0.31,0.47c0.63,0.16,0.94,0.47,0.94,0.78
			c0,0,0.16,0,0.31-0.16L122.72,272.57z M124.91,271.63c-0.16,0-0.16-0.16-0.16-0.16c0-0.16-0.16-0.16-0.16-0.31h-0.47l-0.47,0.31
			c0.16,0.31,0.47,0.47,0.78,0.63l0.16-0.16C124.6,271.78,124.75,271.78,124.91,271.63z M125.85,274.29h0.78v-0.63
			c0.16,0,0.31,0,0.31,0.16h0.31c0.16,0,0.47-0.16,0.78-0.47c-0.16,0-0.31-0.16-0.31-0.16c-0.16-0.16-0.31-0.16-0.31-0.16
			c-0.31,0-0.47-0.16-0.63-0.16c-0.31,0-0.47,0.16-0.47,0.16c-0.16,0.16-0.31,0.31-0.47,0.31V274.29z M129.92,275.23h-1.88
			c-0.16,0.16-0.47,0.16-0.63,0.16c-0.78,0-1.1,0.16-1.25,0.47c0,0.16,0.16,0.31,0.16,0.31c0.31,0,0.63,0.16,1.1,0.31
			c0.47,0.16,0.78,0.31,0.94,0.31s0.31-0.16,0.31-0.31c0,0,0-0.16,0.16-0.16c0.94,0,1.72-0.16,2.35-0.16
			c0.47-0.16,1.1-0.16,1.88-0.16v-0.31c0-0.16,0-0.31-0.31-0.47c-0.31,0-0.63,0.16-0.78,0.31h-0.78c0,0-0.31,0-0.63-0.16
			C130.23,275.23,130.08,275.23,129.92,275.23z M127.57,281.49l-1.41-0.16v0.47c0,0.31,0.16,0.31,0.16,0.47h0.63
			C126.95,281.96,127.26,281.8,127.57,281.49z M128.67,282.9c-0.31,0-0.63,0.31-0.94,0.94l0.47,0.16h1.41c0.31,0,0.47,0,0.63-0.16
			c-0.31-0.16-0.63-0.47-0.63-0.78l0.31-0.31C129.29,282.74,128.98,282.9,128.67,282.9z M129.29,287.12l0.31-0.31
			c-0.78-0.31-1.25-0.31-1.25-0.31c-0.47,0-0.63,0.16-0.63,0.47c0,0.16,0.31,0.31,0.63,0.31c0.16,0,0.47,0.16,0.78,0.16
			C129.14,287.43,129.29,287.28,129.29,287.12z M129.14,277.1h0.16c0-0.16-0.16-0.31-0.16-0.31l-0.31,0.16
			C128.83,276.95,128.98,277.1,129.14,277.1z M129.92,291.97h0.63c0.31-0.16,0.63-0.31,0.63-0.63s-0.31-0.47-0.63-0.47
			c-0.16,0-0.31,0.16-0.63,0.16c-0.16,0.16-0.31,0.31-0.31,0.47C129.61,291.66,129.76,291.82,129.92,291.97z M136.34,344.25
			c0-0.94,0-1.41-0.16-2.04c0,0.16-0.16-0.31-0.47-1.57c-0.16-0.63-1.41-4.07-1.88-6.1l-0.47-2.03c0,0-0.16-0.31-0.31-0.94
			c0-0.78-0.16-1.41-0.16-1.72c-0.16-0.31-0.16-0.47-0.16-0.78c-0.16-0.63-0.31-1.88-0.31-1.88c-0.16-0.31-0.31-0.78-0.78-1.25
			c-0.78-0.47-1.1-0.94-1.1-0.94l5.01,20.03c0-0.16,0.16-0.31,0.47-0.47C136.34,344.56,136.5,344.4,136.34,344.25z M132.9,277.42
			c0,0-0.16,0-0.16-0.16h-1.57c-0.16,0.16-0.31,0.31-0.31,0.47c0,0.31,0.31,0.78,0.94,0.78c0.31,0,1.25-0.16,1.25-0.94v-0.16H132.9z
			 M133.99,273.66c0,0.16,0.16,0.16,0.31,0.16c0,0.16,0.16,0.16,0.31,0.16c0.31,0,0.47,0,0.47-0.16l0.16-0.16l-0.31-0.63
			c-0.31,0-0.63,0-0.94,0.31V273.66z M135.4,357.55l-0.16-0.31l-1.1,0.31l0.16,0.31L135.4,357.55z M135.56,274.29
			c-0.31,0-0.63-0.16-0.94-0.16v1.25h0.63c0-0.16,0.31-0.31,0.47-0.31l0.63-0.16v-0.47C136.19,274.29,135.87,274.29,135.56,274.29z
			 M136.5,291.03c-0.31,0-0.63-0.16-0.78-0.16l-0.78,0.47c0,0.31,0.31,0.63,0.78,0.78c0.16-0.16,0.47-0.16,0.78-0.16V291.03z
			 M136.97,279.92l-0.31-0.31c-0.16,0-0.31,0.31-0.31,0.63C136.81,280.23,136.97,280.08,136.97,279.92z M138.22,272.1
			c0-0.16,0.16-0.16,0.16-0.31v-0.31l-0.31-0.31c0,0.16,0,0.16-0.16,0.31c-0.16,0-0.31,0-0.31,0.16
			C137.6,271.94,137.75,272.1,138.22,272.1z M139.16,274.13v-0.31c-0.16-0.16-0.16-0.16-0.16-0.31c-0.31,0.31-0.63,0.47-1.1,0.47
			C138.38,274.29,138.85,274.29,139.16,274.13z M139.94,301.52c-0.31-0.31-0.63-0.31-0.94-0.31l-0.31,0.47h0.63
			C139.47,301.68,139.63,301.52,139.94,301.52z M139.32,283.36l-0.31,0.16l0.31,0.31l0.31-0.31L139.32,283.36z M140.88,287.28
			c-0.16-0.16-0.47-0.31-0.78-0.47c-0.47-0.16-0.78-0.31-0.94-0.47v1.41c0.47,0,0.63,0.16,0.63,0.47c0.16,0,0.31-0.16,0.63-0.47
			L140.88,287.28z M143.23,356.3l-0.16-0.78c-0.63,0.16-0.94,0.47-1.41,0.94l0.47,0.16c0.31,0,0.47,0,0.63-0.16
			C142.76,356.3,143.08,356.3,143.23,356.3z M149.81,310.91l-1.25,0.31c0.16,0,0.31,0,0.47,0.16c0.16,0.16,0.31,0.16,0.63,0.16
			L149.81,310.91z M154.35,342.21h-0.47c-0.31,0-0.78,0.16-1.25,0.63c0.16,0,0.31,0,0.31,0.16l0.31,0.31l1.1-0.16V342.21z
			 M156.39,328.75c-0.16-0.16-0.47-0.31-0.78-0.16c-0.31,0-0.47,0.16-0.47,0.16H156.39z M157.02,340.96l0.16-0.31h-0.63v0.16
			L157.02,340.96z M156.7,334.39l0.78,0.31c0.16,0,0.47,0,0.78,0.31c0.16-0.16,0.31-0.47,0.31-0.78c-0.31,0-0.63,0-0.94,0.16H156.7z
			 M159.05,346.75c0-0.16-0.16-0.47-0.31-0.47c-0.16-0.16-0.31-0.31-0.31-0.47c-0.47,0-0.78,0.16-0.94,0.16s-0.31,0.16-0.31,0.16
			c0,0.47,0.31,1.1,1.1,1.41c0.16-0.16,0.31-0.16,0.78-0.16V346.75z M161.71,328.13c-0.31-0.16-0.63-0.31-0.94-0.31
			c-0.47,0-0.78,0.16-1.1,0.16c-0.63,0.16-1.1,0.16-1.25,0.16l0.47,0.63h0.63C159.99,328.75,161.71,328.13,161.71,328.13z
			 M161.24,340.49c-0.31-0.16-0.31-0.31-0.47-0.47c-0.31,0-0.47-0.16-0.47-0.31c-0.63,0.31-0.78,0.47-0.78,0.63
			c0,0,0.31,0,0.78,0.16H161.24z M168.45,342.21v-0.47c-0.31-0.16-0.47-0.16-0.63-0.31c-0.16,0-0.31-0.16-0.47-0.16
			c0,0,0,0.16-0.16,0.31s-0.31,0.31-0.31,0.47c0,0.31,0.16,0.47,0.31,0.47s0.16,0.16,0.16,0.31c0.16-0.16,0.31-0.31,0.47-0.31
			C168.61,342.21,168.76,342.21,168.45,342.21z M168.76,330.47h-0.63c-0.16-0.16-0.47-0.16-0.78-0.16l-0.16,0.16
			c0,0.16-0.16,0.16-0.16,0.31c0,0.16,0.16,0.31,0.47,0.47c-0.94-0.31,0.47,0.63,1.25,0V330.47z M167.35,322.49
			c0.16,0,0.47-0.16,0.78-0.16v-0.63c-0.16,0-0.31,0.16-0.78,0.16V322.49z"/>
		<path class="st0" d="M275.88,260.51l-0.47,18.62c-0.16,1.88-1.1,2.97-2.98,3.13l-43.07,4.54l-1.1,12.99l32.26-1.72v15.34h0.63
			v-15.34c1.72,0,3.29,1.41,3.29,3.13v16.28c0,1.72-0.94,2.82-2.66,3.13l-34.3,4.54l-0.78,12.99l41.82-1.25
			c1.88,0,3.29,1.41,3.29,3.13v19.72c0,1.88-0.94,2.97-2.98,3.13l-65.94,3.44c-1.88,0-3.29-1.25-3.29-3.29
			c0.16-15.34,0.63-31.46,1.41-48.2c0.78-17.37,2.19-34.59,3.92-51.81c0.31-1.88,1.25-2.82,3.13-2.82l64.37-2.97
			C274.47,257.23,275.88,258.64,275.88,260.51z M204,357.24h-1.88C202.43,358.02,203.68,357.55,204,357.24z M206.35,353.79h-2.04
			v0.94h1.57C205.88,354.26,206.03,353.95,206.35,353.79z M208.69,357.86h-0.31v-0.63h-1.41v0.63h1.41v0.63h0.31V357.86z
			 M210.1,274.13h-0.16l-0.31,0.16l0.31,0.16L210.1,274.13z M210.89,356.14h1.72v-0.63h-1.72V356.14z M212.45,361.78h-1.25v0.63
			h1.25V361.78z M214.65,358.65h-2.66v1.41c0.94,0,1.72,0.16,2.19,0.31c0,0,0.16-0.31,0.16-0.78
			C214.65,359.12,214.65,358.8,214.65,358.65z M216.06,354.11h-1.72v0.63h1.72V354.11z M216.84,334.7c0-0.16,0.16-0.16,0.31-0.47
			l-0.47-0.31c-0.16,0-0.47,0.16-0.78,0.31l0.16,0.63C216.53,334.86,216.68,334.86,216.84,334.7z M216.21,332.2
			c0.47-0.16,0.78-0.47,0.78-0.94h-0.94C215.9,331.57,215.9,331.88,216.21,332.2z M216.84,327.97l0.94,0.31c0-0.31,0-0.31,0.16-0.47
			l0.16-0.16c-0.47-0.16-0.78-0.16-0.78-0.16C217,327.66,216.84,327.81,216.84,327.97z M218.4,355.67c-0.31,0-0.94,0.31-1.25,0.47
			c0.47,1.1,0.63,2.35,0.63,3.29C218.87,358.8,219.19,356.45,218.4,355.67z M217.78,314.04l0.47,0.31c0.16,0,0.31-0.16,0.63-0.16
			c0-0.31,0.16-0.31,0.47-0.47c-0.31,0-0.47-0.16-0.47-0.16c-0.16,0-0.31-0.16-0.63-0.16C217.93,313.57,217.78,313.88,217.78,314.04
			z M217.78,321.4h0.78c0.16-0.16,0.16-0.31,0-0.63C217.93,320.93,217.78,321.24,217.78,321.4z M218.87,336.73v-0.47
			c0.16,0,0-0.16,0-0.47c-0.47,0-0.78,0.63-0.78,0.63C218.25,336.58,218.56,336.73,218.87,336.73z M218.09,347.38v0.94
			c0-0.16,0.16-0.16,0.31-0.31l0.63-0.63H218.09z M218.56,268.03c0,0.16,0,0.31,0.16,0.63v0.31h0.63c0-0.16,0.16-0.31,0.31-0.47
			c0.16-0.16,0.31-0.16,0.31-0.31L218.56,268.03z M219.81,319.21c-0.16,0-0.78,0.47-0.78,0.63c0.47,0.16,0.78,0.16,1.1,0
			L219.81,319.21z M220.75,327.34c-0.31-0.63-0.63-1.1-0.63-1.25l-1.1,0.16l0.78,0.63C219.97,327.19,220.28,327.34,220.75,327.34z
			 M220.28,351.29h-1.25v0.78h1.25V351.29z M219.34,332.35c0.16,0.16,0.16,0.16,0.31,0.16c0.16,0,0.31,0,0.47-0.16l-0.16-0.78h-0.31
			c0,0.16-0.16,0.16-0.16,0.16h-0.31v0.63H219.34z M220.6,334.54h-0.78v0.16l0.63,0.16L220.6,334.54z M219.97,264.11h3.29v-0.47
			h-3.29V264.11z M220.44,317.01c0,0.31,0.16,0.63,0.16,0.63c0.47,0,0.78-0.16,0.94-0.31c0-0.31-0.16-0.78-0.63-1.1
			C220.28,316.54,220.13,316.86,220.44,317.01z M221.38,315.92l-0.16-0.16c-0.16,0-0.16,0-0.31-0.16c-0.16,0.16-0.16,0.16-0.31,0.16
			v0.16C220.91,316.23,221.07,316.23,221.38,315.92z M220.6,322.65l1.41,0.16l0.31-0.63c-0.16-0.16-0.31-0.31-0.31-0.47h-0.78
			C220.75,322.18,220.6,322.49,220.6,322.65z M221.07,326.25l1.72,0.16c0.16,0,0.31-0.31,0.31-0.47l-1.72-0.16
			C221.38,325.93,221.22,326.09,221.07,326.25z M221.22,319.99v0.78c0.63,0.47,1.1,0.63,1.41,0.63h0.47l0.47-0.31v-2.03
			c-0.31-0.16-0.47-0.31-0.63-0.47c-0.16,0-0.31-0.16-0.63-0.16C221.54,318.42,221.22,319.52,221.22,319.99z M222.01,347.85v-0.31
			c0-0.16,0-0.16,0.16-0.16h-0.94C221.22,347.69,221.54,347.85,222.01,347.85z M224.98,358.18c-0.63,0-1.25,0-1.72,0.16
			c-0.31,0.16-0.63,0.16-0.94,0.31c-0.31,0-0.47,0.16-0.78,0.16c0.31,0.16,1.1,0.94,1.1,1.25c0.78-0.47,1.41-1.09,1.57-1.25
			C224.51,358.49,224.83,358.33,224.98,358.18z M222.48,328.28c-0.16-0.31-0.31-0.63-0.16-0.78c0.16-0.31,0.16-0.47,0-0.63
			l-0.47,0.47c-0.16,0-0.16,0.16-0.16,0.31v0.63H222.48z M221.69,328.6v0.63h0.47v-0.63H221.69z M223.89,312.32
			c-0.31,0-0.47-0.16-0.63-0.31l-0.16-0.16h-0.78c-0.31,0.31-0.47,0.78-0.47,0.94c0.47-0.16,0.78-0.16,0.94-0.16
			C223.26,312.63,223.57,312.63,223.89,312.32z M222.01,324.53l0.31,0.63c0.31,0,0.63,0,0.94-0.31
			C222.95,324.68,222.63,324.53,222.01,324.53z M222.79,313.1l-0.47,0.31c0.16,0.31,0.31,0.47,0.47,0.63
			c0.16-0.47,0.47-0.63,0.78-0.47c0.47,0,0.94,0,1.41-0.16C224.2,313.41,222.79,313.1,222.79,313.1z M225.77,314.67
			c-0.31,0-0.31,0-0.63-0.16h-0.63c-0.16,0-0.47,0-0.94,0.31c-0.63,0.16-0.94,0.31-1.25,0.47c0.63,0.31,1.25,0.47,1.41,0.63
			c-0.16,0.47-0.31,0.78-0.16,1.1l1.41-0.31C224.67,316.08,225.14,315.45,225.77,314.67z M222.48,328.91c0,0.16,0,0.31,0.16,0.31
			c0,0.16,0,0.16,0.16,0.31l1.1-0.31c-0.16,0-0.16-0.16-0.16-0.31v-0.16c-0.47,0-0.63,0.16-0.78,0.16H222.48z M223.89,322.96
			l-0.16-0.94c-0.47,0-0.78,0.16-0.78,0.63v0.63L223.89,322.96z M224.36,324.84l0.47-0.31l-1.25-0.31v0.63H224.36z M227.96,317.8
			h-0.78c-0.31,0-0.47,0.16-0.47,0.31s-0.16,0.31-0.31,0.31c0-0.47-0.16-0.78-0.47-0.94h-0.94c0,0.16,0.16,0.31,0.31,0.31l0.47,0.47
			l-1.1,0.47c-0.31,0.16-0.63,0.47-0.78,0.63c0.31,0.16,0.63,0.16,0.78,0.31h0.94c0.31,0,0.31,0.16,2.35-0.63V317.8z M226.86,323.27
			c0-0.16-0.16-0.31-0.31-0.31l-0.31-0.31c-0.31,0.16-0.78,0.16-1.41,0.16c-0.31,0-0.63,0.16-0.63,0.16s-0.16,0.16-0.31,0.16
			l0.78,0.63c0.47-0.16,0.78-0.31,1.1-0.31L226.86,323.27z M224.98,330.32h-0.94v0.63h0.94V330.32z M224.36,306.37
			c0,0.31,0.16,0.47,0.47,0.63c0.31,0.31,0.78,0.31,1.41,0.31h0.47v-0.47h-0.94C225.61,306.68,224.67,306.37,224.36,306.37z
			 M224.98,309.81c0,0,0.16,0,0.47-0.16l-0.31-0.16h-0.16c-0.16,0-0.31,0-0.31,0.16C224.67,309.97,224.83,310.13,224.98,309.81z
			 M224.98,290.56l0.78,0.16c0.16-0.16,0.16-0.31,0-0.78c-0.16,0-0.31,0.16-0.47,0.31C225.14,290.41,224.98,290.41,224.98,290.56z
			 M226.08,293.38l0.16-0.16l-0.78-0.16v0.16L226.08,293.38z M226.86,301.52c-0.16,0-0.31-0.16-0.63-0.16l-0.16,0.16
			c-0.31,0.16-0.47,0.31-0.47,0.63c0,0.47,0.47,0.78,1.25,0.78c0.16,0,0.47,0,0.63-0.16v-1.09
			C227.33,301.68,227.02,301.68,226.86,301.52z M225.61,306.84h0.16H225.61z M225.61,315.76c0.16,0.78,0.47,0.78,1.1,0.78
			c0.31,0,0.63-0.16,1.1-0.31l-0.47-0.47H225.61z M226.39,327.34h-0.78v0.63C226.08,327.97,226.39,327.66,226.39,327.34z
			 M226.71,321.87c0-0.31-0.31-0.63-0.63-0.78l-0.31,0.63C226.08,321.87,226.39,321.87,226.71,321.87z M225.92,283.05h0.31
			l0.16-0.16c-0.16,0-0.16-0.16-0.16-0.31C226.08,282.58,225.92,282.74,225.92,283.05z M226.08,264.27h0.47v-0.31h-0.47V264.27z
			 M227.49,320.14h-0.94l-0.31,0.47h0.94C227.33,320.61,227.49,320.46,227.49,320.14z M226.39,354.73v0.78h1.25v-0.78H226.39z
			 M227.02,299.64h0.78v-0.78h-0.78V299.64z M227.8,260.67h0.31v-0.47h-0.31V260.67z M231.25,263.64h-2.19v0.16h-0.31
			c-0.47,0.16-0.78,0.31-0.78,0.47h1.1l0.16-0.16h2.04V263.64z M228.58,306.53l0.63,0.63c0.16,0,0.47,0.16,0.78,0.16l0.16-0.16h0.31
			v-0.78c-0.47,0-0.78-0.16-0.94-0.31l-0.31,0.16c0,0-0.16,0-0.16,0.16C229.05,306.37,228.9,306.37,228.58,306.53z M229.37,347.85
			l0.31,0.63h0.31l-0.47-0.63H229.37z M230.93,305.59c0.63-0.16,0.63-0.47,0-0.94V305.59z M231.87,342.37h1.25v-0.31h-1.25V342.37z
			 M231.87,344.4l0.31,0.31c0.47-0.16,0.63-0.31,0.31-0.63c-0.16,0-0.31,0-0.31,0.16h-0.31V344.4z M234.07,271.78l-0.31-0.94
			c-0.78,0.31-1.25,0.63-1.25,0.94c0.31,0.16,0.47,0.16,0.63,0H234.07z M233.75,342.84h-0.94v0.31h0.94V342.84z M233.13,265.68
			c0-0.16,0.31-0.31,0.63-0.63s0.16-0.31-0.31-0.16C233.28,264.9,233.13,265.05,233.13,265.68z M234.07,349.41l-0.31-0.31h-0.31
			l0.31,0.63c0,0,0-0.16,0.16-0.16S234.07,349.41,234.07,349.41z M236.89,269.59v-0.16l0.78-0.78c-0.16,0.16-0.47,0.31-0.63,0.31
			h-0.31c-0.16,0-0.16,0.16-0.47,0.16h-0.31c-0.47,0.16-0.94,0.63-1.25,1.25l0.31,0.31h1.88c0.31,0,0.31-0.16,0.31-0.16h0.16
			l0.31-0.31C237.2,270.06,236.89,269.9,236.89,269.59z M236.89,273.35c-0.63-0.31-1.1-0.47-1.41-0.47c-0.47,0-0.78,0.16-0.78,0.78
			l0.78,0.47l0.47,0.16h0.16c0.16,0,0.31-0.31,0.31-0.47L236.89,273.35z M234.85,356.61c0,0.47,0.16,0.78,0.16,0.78h2.19
			c0-0.16,0.16-0.31,0.31-0.63c0.16-0.16,0.16-0.47,0.16-0.63l-0.78-0.78h-1.88C234.85,355.67,234.85,356.14,234.85,356.61z
			 M235.79,308.72h1.25c0.31-0.16,0.31-0.31,0.31-0.47v-0.63h-1.25c0,0.31,0,0.31-0.16,0.63
			C235.95,308.56,235.79,308.72,235.79,308.72z M236.1,304.34l0.78,0.63c0.47-0.16,0.63-0.78,0.16-1.1L236.1,304.34z M236.1,306.37
			c0,0.16,0.16,0.31,0.31,0.63h1.1l-0.47-0.31c-0.31-0.16-0.31-0.31-0.63-0.47C236.26,306.37,236.1,306.37,236.1,306.37z
			 M236.57,344.4l0.31,1.1c0.16,0,0.16-0.16,0.16-0.16c0.16,0,0.16-0.16,0.16-0.31c0.16,0,0.16-0.16,0.16-0.31
			C237.2,344.56,236.89,344.4,236.57,344.4z M237.35,342.99c0.31,0.16,0.47,0.47,0.47,0.63h0.78c0.16-0.16,0.31-0.31,0.31-0.47
			c0-0.16,0.16-0.31,0.16-0.31l-0.31-0.78c0,0.16-0.31,0.47-0.63,0.47C237.67,342.84,237.51,342.99,237.35,342.99z M238.29,261.92
			c-0.16,0-0.31-0.16-0.31-0.31C237.67,261.77,237.83,261.92,238.29,261.92z M239.7,274.91c0-0.31-0.16-0.63-0.78-0.63
			c-0.16,0-0.16,0.16-0.31,0.16h-0.16l-0.16,0.16c-0.16,0.16-0.31,0.31-0.31,0.63c0,0.16,0.16,0.31,0.16,0.31h1.1
			C239.55,275.54,239.7,275.38,239.7,274.91z M241.27,263.64c0-0.31-0.31-0.63-0.94-0.63c-0.63,0-1.1,0.16-1.41,0.63
			c-0.16,0.31-0.31,0.47-0.47,0.63c0.31-0.16,0.47-0.47,0.47-0.63c0.16,0,0.47-0.16,0.78-0.16c0.63,0.16,0.94,0.47,0.94,0.78v0.63
			c0-0.31,0.16-0.47,0.31-0.63C241.27,263.96,241.27,263.8,241.27,263.64z M238.92,348.63h-0.31l-0.16,0.47h0.47V348.63z
			 M238.92,282.11h-0.31v0.47h0.31V282.11z M239.39,302.62h0.16v-0.16L239.39,302.62z M239.55,345.81h0.78c0-0.16,0-0.31,0.16-0.47
			c0,0,0-0.16-0.16-0.31C239.86,345.19,239.55,345.5,239.55,345.81z M240.96,273.03c0-0.16-0.16-0.47-0.78-0.94l-0.47,0.94H240.96z
			 M240.17,302.62v0.16l0.31-0.16H240.17z M241.11,303.87h-0.63l-0.31,0.63l0.63,0.31L241.11,303.87z M240.96,344.09l0.63-0.16
			c0-0.16,0-0.16-0.16-0.16s-0.16-0.16-0.31-0.31L240.96,344.09z M243.78,274.6c0-0.47-0.16-0.94-0.63-1.1
			c-0.31,0.16-0.47,0.16-0.63,0.16s-0.31,0-0.63,0.16l0.31,0.78h0.78C243.15,274.76,243.46,274.76,243.78,274.6z M242.99,270.69
			h0.16l0.16,0.16l0.16-0.47h-0.47V270.69z M242.99,359.43h1.1v-0.31h-1.1V359.43z M243.78,265.37h-0.63v0.31h0.63V265.37z
			 M244.4,348.32c0,0.47,0.31,0.78,0.78,0.78l0.31-0.47c0.16-0.16,0.16-0.31,0.16-0.31H244.4z M247.38,273.19
			c0-0.16-0.16-0.31-0.31-0.47l-0.31-0.31c-0.78,0.31-1.25,0.63-1.25,0.94L247.38,273.19z M247.07,343.15h0.31l0.16-0.31l-0.16-0.16
			L247.07,343.15z M252.08,264.27h-1.25v0.63h1.25V264.27z M254.58,320.14h1.88v-0.47h-1.88V320.14z M260.85,317.64
			c0.31-0.47,0.47-0.63,0.63-0.78c0.16-0.31,0.31-0.47,0.31-0.63l-0.31-1.1c-0.16-0.16-0.31-0.63-0.63-1.41V317.64z M261.79,304.65
			c0.31,0,0.47,0,0.78,0.16c0.31,0,0.63,0.16,0.78,0.16l0.63-0.78v-1.25c-0.16-0.16-0.94-0.47-1.25-0.47l-0.94,0.63V304.65z
			 M262.57,274.44h-0.31v0.78h0.31V274.44z M262.57,361.93c0.31,0,0.63-0.16,0.94-0.47h-0.63
			C262.88,361.78,262.73,361.93,262.57,361.93z M262.88,354.42l1.88,0.31v-0.47l-1.57-0.47L262.88,354.42z M264.45,263.17h-0.31
			v0.47h0.31V263.17z"/>
		<path class="st0" d="M356.85,260.51l-0.47,18.62c-0.16,1.88-1.1,2.97-2.98,3.13l-43.07,4.54l-1.1,12.99l32.26-1.72v15.34h0.63
			v-15.34c1.72,0,3.29,1.41,3.29,3.13v16.28c0,1.72-0.94,2.82-2.66,3.13l-34.3,4.54l-0.78,12.99l41.82-1.25
			c1.88,0,3.29,1.41,3.29,3.13v19.72c0,1.88-0.94,2.97-2.98,3.13l-65.94,3.44c-1.88,0-3.29-1.25-3.29-3.29
			c0.16-15.34,0.63-31.46,1.41-48.2c0.78-17.37,2.19-34.59,3.92-51.81c0.31-1.88,1.25-2.82,3.13-2.82l64.37-2.97
			C355.44,257.23,356.85,258.64,356.85,260.51z M284.96,357.24h-1.88C283.4,358.02,284.65,357.55,284.96,357.24z M287.31,353.79
			h-2.04v0.94h1.57C286.84,354.26,287,353.95,287.31,353.79z M289.66,357.86h-0.31v-0.63h-1.41v0.63h1.41v0.63h0.31V357.86z
			 M291.07,274.13h-0.16l-0.31,0.16l0.31,0.16L291.07,274.13z M291.85,356.14h1.72v-0.63h-1.72V356.14z M293.42,361.78h-1.25v0.63
			h1.25V361.78z M295.61,358.65h-2.66v1.41c0.94,0,1.72,0.16,2.19,0.31c0,0,0.16-0.31,0.16-0.78
			C295.61,359.12,295.61,358.8,295.61,358.65z M297.02,354.11h-1.72v0.63h1.72V354.11z M297.81,334.7c0-0.16,0.16-0.16,0.31-0.47
			l-0.47-0.31c-0.16,0-0.47,0.16-0.78,0.31l0.16,0.63C297.49,334.86,297.65,334.86,297.81,334.7z M297.18,332.2
			c0.47-0.16,0.78-0.47,0.78-0.94h-0.94C296.87,331.57,296.87,331.88,297.18,332.2z M297.81,327.97l0.94,0.31
			c0-0.31,0-0.31,0.16-0.47l0.16-0.16c-0.47-0.16-0.78-0.16-0.78-0.16C297.96,327.66,297.81,327.81,297.81,327.97z M299.37,355.67
			c-0.31,0-0.94,0.31-1.25,0.47c0.47,1.1,0.63,2.35,0.63,3.29C299.84,358.8,300.16,356.45,299.37,355.67z M298.75,314.04l0.47,0.31
			c0.16,0,0.31-0.16,0.63-0.16c0-0.31,0.16-0.31,0.47-0.47c-0.31,0-0.47-0.16-0.47-0.16c-0.16,0-0.31-0.16-0.63-0.16
			C298.9,313.57,298.75,313.88,298.75,314.04z M298.75,321.4h0.78c0.16-0.16,0.16-0.31,0-0.63
			C298.9,320.93,298.75,321.24,298.75,321.4z M299.84,336.73v-0.47c0.16,0,0-0.16,0-0.47c-0.47,0-0.78,0.63-0.78,0.63
			C299.22,336.58,299.53,336.73,299.84,336.73z M299.06,347.38v0.94c0-0.16,0.16-0.16,0.31-0.31l0.63-0.63H299.06z M299.53,268.03
			c0,0.16,0,0.31,0.16,0.63v0.31h0.63c0-0.16,0.16-0.31,0.31-0.47c0.16-0.16,0.31-0.16,0.31-0.31L299.53,268.03z M300.78,319.21
			c-0.16,0-0.78,0.47-0.78,0.63c0.47,0.16,0.78,0.16,1.1,0L300.78,319.21z M301.72,327.34c-0.31-0.63-0.63-1.1-0.63-1.25l-1.1,0.16
			l0.78,0.63C300.94,327.19,301.25,327.34,301.72,327.34z M301.25,351.29H300v0.78h1.25V351.29z M300.31,332.35
			c0.16,0.16,0.16,0.16,0.31,0.16c0.16,0,0.31,0,0.47-0.16l-0.16-0.78h-0.31c0,0.16-0.16,0.16-0.16,0.16h-0.31v0.63H300.31z
			 M301.56,334.54h-0.78v0.16l0.63,0.16L301.56,334.54z M300.94,264.11h3.29v-0.47h-3.29V264.11z M301.41,317.01
			c0,0.31,0.16,0.63,0.16,0.63c0.47,0,0.78-0.16,0.94-0.31c0-0.31-0.16-0.78-0.63-1.1C301.25,316.54,301.1,316.86,301.41,317.01z
			 M302.35,315.92l-0.16-0.16c-0.16,0-0.16,0-0.31-0.16c-0.16,0.16-0.16,0.16-0.31,0.16v0.16
			C301.88,316.23,302.03,316.23,302.35,315.92z M301.56,322.65l1.41,0.16l0.31-0.63c-0.16-0.16-0.31-0.31-0.31-0.47h-0.78
			C301.72,322.18,301.56,322.49,301.56,322.65z M302.03,326.25l1.72,0.16c0.16,0,0.31-0.31,0.31-0.47l-1.72-0.16
			C302.35,325.93,302.19,326.09,302.03,326.25z M302.19,319.99v0.78c0.63,0.47,1.1,0.63,1.41,0.63h0.47l0.47-0.31v-2.03
			c-0.31-0.16-0.47-0.31-0.63-0.47c-0.16,0-0.31-0.16-0.63-0.16C302.5,318.42,302.19,319.52,302.19,319.99z M302.97,347.85v-0.31
			c0-0.16,0-0.16,0.16-0.16h-0.94C302.19,347.69,302.5,347.85,302.97,347.85z M305.95,358.18c-0.63,0-1.25,0-1.72,0.16
			c-0.31,0.16-0.63,0.16-0.94,0.31c-0.31,0-0.47,0.16-0.78,0.16c0.31,0.16,1.1,0.94,1.1,1.25c0.78-0.47,1.41-1.09,1.57-1.25
			C305.48,358.49,305.79,358.33,305.95,358.18z M303.44,328.28c-0.16-0.31-0.31-0.63-0.16-0.78c0.16-0.31,0.16-0.47,0-0.63
			l-0.47,0.47c-0.16,0-0.16,0.16-0.16,0.31v0.63H303.44z M302.66,328.6v0.63h0.47v-0.63H302.66z M304.85,312.32
			c-0.31,0-0.47-0.16-0.63-0.31l-0.16-0.16h-0.78c-0.31,0.31-0.47,0.78-0.47,0.94c0.47-0.16,0.78-0.16,0.94-0.16
			C304.23,312.63,304.54,312.63,304.85,312.32z M302.97,324.53l0.31,0.63c0.31,0,0.63,0,0.94-0.31
			C303.91,324.68,303.6,324.53,302.97,324.53z M303.76,313.1l-0.47,0.31c0.16,0.31,0.31,0.47,0.47,0.63
			c0.16-0.47,0.47-0.63,0.78-0.47c0.47,0,0.94,0,1.41-0.16C305.17,313.41,303.76,313.1,303.76,313.1z M306.73,314.67
			c-0.31,0-0.31,0-0.63-0.16h-0.63c-0.16,0-0.47,0-0.94,0.31c-0.63,0.16-0.94,0.31-1.25,0.47c0.63,0.31,1.25,0.47,1.41,0.63
			c-0.16,0.47-0.31,0.78-0.16,1.1l1.41-0.31C305.64,316.08,306.11,315.45,306.73,314.67z M303.44,328.91c0,0.16,0,0.31,0.16,0.31
			c0,0.16,0,0.16,0.16,0.31l1.1-0.31c-0.16,0-0.16-0.16-0.16-0.31v-0.16c-0.47,0-0.63,0.16-0.78,0.16H303.44z M304.85,322.96
			l-0.16-0.94c-0.47,0-0.78,0.16-0.78,0.63v0.63L304.85,322.96z M305.32,324.84l0.47-0.31l-1.25-0.31v0.63H305.32z M308.93,317.8
			h-0.78c-0.31,0-0.47,0.16-0.47,0.31s-0.16,0.31-0.31,0.31c0-0.47-0.16-0.78-0.47-0.94h-0.94c0,0.16,0.16,0.31,0.31,0.31l0.47,0.47
			l-1.1,0.47c-0.31,0.16-0.63,0.47-0.78,0.63c0.31,0.16,0.63,0.16,0.78,0.31h0.94c0.31,0,0.31,0.16,2.35-0.63V317.8z M307.83,323.27
			c0-0.16-0.16-0.31-0.31-0.31l-0.31-0.31c-0.31,0.16-0.78,0.16-1.41,0.16c-0.31,0-0.63,0.16-0.63,0.16s-0.16,0.16-0.31,0.16
			l0.78,0.63c0.47-0.16,0.78-0.31,1.1-0.31L307.83,323.27z M305.95,330.32h-0.94v0.63h0.94V330.32z M305.32,306.37
			c0,0.31,0.16,0.47,0.47,0.63c0.31,0.31,0.78,0.31,1.41,0.31h0.47v-0.47h-0.94C306.58,306.68,305.64,306.37,305.32,306.37z
			 M305.95,309.81c0,0,0.16,0,0.47-0.16l-0.31-0.16h-0.16c-0.16,0-0.31,0-0.31,0.16C305.64,309.97,305.79,310.13,305.95,309.81z
			 M305.95,290.56l0.78,0.16c0.16-0.16,0.16-0.31,0-0.78c-0.16,0-0.31,0.16-0.47,0.31C306.11,290.41,305.95,290.41,305.95,290.56z
			 M307.05,293.38l0.16-0.16l-0.78-0.16v0.16L307.05,293.38z M307.83,301.52c-0.16,0-0.31-0.16-0.63-0.16l-0.16,0.16
			c-0.31,0.16-0.47,0.31-0.47,0.63c0,0.47,0.47,0.78,1.25,0.78c0.16,0,0.47,0,0.63-0.16v-1.09
			C308.3,301.68,307.99,301.68,307.83,301.52z M306.58,306.84h0.16H306.58z M306.58,315.76c0.16,0.78,0.47,0.78,1.1,0.78
			c0.31,0,0.63-0.16,1.1-0.31l-0.47-0.47H306.58z M307.36,327.34h-0.78v0.63C307.05,327.97,307.36,327.66,307.36,327.34z
			 M307.67,321.87c0-0.31-0.31-0.63-0.63-0.78l-0.31,0.63C307.05,321.87,307.36,321.87,307.67,321.87z M306.89,283.05h0.31
			l0.16-0.16c-0.16,0-0.16-0.16-0.16-0.31C307.05,282.58,306.89,282.74,306.89,283.05z M307.05,264.27h0.47v-0.31h-0.47V264.27z
			 M308.46,320.14h-0.94l-0.31,0.47h0.94C308.3,320.61,308.46,320.46,308.46,320.14z M307.36,354.73v0.78h1.25v-0.78H307.36z
			 M307.99,299.64h0.78v-0.78h-0.78V299.64z M308.77,260.67h0.31v-0.47h-0.31V260.67z M312.21,263.64h-2.19v0.16h-0.31
			c-0.47,0.16-0.78,0.31-0.78,0.47h1.1l0.16-0.16h2.04V263.64z M309.55,306.53l0.63,0.63c0.16,0,0.47,0.16,0.78,0.16l0.16-0.16h0.31
			v-0.78c-0.47,0-0.78-0.16-0.94-0.31l-0.31,0.16c0,0-0.16,0-0.16,0.16C310.02,306.37,309.87,306.37,309.55,306.53z M310.34,347.85
			l0.31,0.63h0.31l-0.47-0.63H310.34z M311.9,305.59c0.63-0.16,0.63-0.47,0-0.94V305.59z M312.84,342.37h1.25v-0.31h-1.25V342.37z
			 M312.84,344.4l0.31,0.31c0.47-0.16,0.63-0.31,0.31-0.63c-0.16,0-0.31,0-0.31,0.16h-0.31V344.4z M315.03,271.78l-0.31-0.94
			c-0.78,0.31-1.25,0.63-1.25,0.94c0.31,0.16,0.47,0.16,0.63,0H315.03z M314.72,342.84h-0.94v0.31h0.94V342.84z M314.09,265.68
			c0-0.16,0.31-0.31,0.63-0.63s0.16-0.31-0.31-0.16C314.25,264.9,314.09,265.05,314.09,265.68z M315.03,349.41l-0.31-0.31h-0.31
			l0.31,0.63c0,0,0-0.16,0.16-0.16S315.03,349.41,315.03,349.41z M317.85,269.59v-0.16l0.78-0.78c-0.16,0.16-0.47,0.31-0.63,0.31
			h-0.31c-0.16,0-0.16,0.16-0.47,0.16h-0.31c-0.47,0.16-0.94,0.63-1.25,1.25l0.31,0.31h1.88c0.31,0,0.31-0.16,0.31-0.16h0.16
			l0.31-0.31C318.17,270.06,317.85,269.9,317.85,269.59z M317.85,273.35c-0.63-0.31-1.1-0.47-1.41-0.47c-0.47,0-0.78,0.16-0.78,0.78
			l0.78,0.47l0.47,0.16h0.16c0.16,0,0.31-0.31,0.31-0.47L317.85,273.35z M315.82,356.61c0,0.47,0.16,0.78,0.16,0.78h2.19
			c0-0.16,0.16-0.31,0.31-0.63c0.16-0.16,0.16-0.47,0.16-0.63l-0.78-0.78h-1.88C315.82,355.67,315.82,356.14,315.82,356.61z
			 M316.76,308.72h1.25c0.31-0.16,0.31-0.31,0.31-0.47v-0.63h-1.25c0,0.31,0,0.31-0.16,0.63
			C316.91,308.56,316.76,308.72,316.76,308.72z M317.07,304.34l0.78,0.63c0.47-0.16,0.63-0.78,0.16-1.1L317.07,304.34z
			 M317.07,306.37c0,0.16,0.16,0.31,0.31,0.63h1.1l-0.47-0.31c-0.31-0.16-0.31-0.31-0.63-0.47
			C317.23,306.37,317.07,306.37,317.07,306.37z M317.54,344.4l0.31,1.1c0.16,0,0.16-0.16,0.16-0.16c0.16,0,0.16-0.16,0.16-0.31
			c0.16,0,0.16-0.16,0.16-0.31C318.17,344.56,317.85,344.4,317.54,344.4z M318.32,342.99c0.31,0.16,0.47,0.47,0.47,0.63h0.78
			c0.16-0.16,0.31-0.31,0.31-0.47c0-0.16,0.16-0.31,0.16-0.31l-0.31-0.78c0,0.16-0.31,0.47-0.63,0.47
			C318.64,342.84,318.48,342.99,318.32,342.99z M319.26,261.92c-0.16,0-0.31-0.16-0.31-0.31
			C318.64,261.77,318.79,261.92,319.26,261.92z M320.67,274.91c0-0.31-0.16-0.63-0.78-0.63c-0.16,0-0.16,0.16-0.31,0.16h-0.16
			l-0.16,0.16c-0.16,0.16-0.31,0.31-0.31,0.63c0,0.16,0.16,0.31,0.16,0.31h1.1C320.52,275.54,320.67,275.38,320.67,274.91z
			 M322.24,263.64c0-0.31-0.31-0.63-0.94-0.63c-0.63,0-1.1,0.16-1.41,0.63c-0.16,0.31-0.31,0.47-0.47,0.63
			c0.31-0.16,0.47-0.47,0.47-0.63c0.16,0,0.47-0.16,0.78-0.16c0.63,0.16,0.94,0.47,0.94,0.78v0.63c0-0.31,0.16-0.47,0.31-0.63
			C322.24,263.96,322.24,263.8,322.24,263.64z M319.89,348.63h-0.31l-0.16,0.47h0.47V348.63z M319.89,282.11h-0.31v0.47h0.31V282.11
			z M320.36,302.62h0.16v-0.16L320.36,302.62z M320.52,345.81h0.78c0-0.16,0-0.31,0.16-0.47c0,0,0-0.16-0.16-0.31
			C320.83,345.19,320.52,345.5,320.52,345.81z M321.92,273.03c0-0.16-0.16-0.47-0.78-0.94l-0.47,0.94H321.92z M321.14,302.62v0.16
			l0.31-0.16H321.14z M322.08,303.87h-0.63l-0.31,0.63l0.63,0.31L322.08,303.87z M321.92,344.09l0.63-0.16c0-0.16,0-0.16-0.16-0.16
			s-0.16-0.16-0.31-0.31L321.92,344.09z M324.74,274.6c0-0.47-0.16-0.94-0.63-1.1c-0.31,0.16-0.47,0.16-0.63,0.16s-0.31,0-0.63,0.16
			l0.31,0.78h0.78C324.12,274.76,324.43,274.76,324.74,274.6z M323.96,270.69h0.16l0.16,0.16l0.16-0.47h-0.47V270.69z
			 M323.96,359.43h1.1v-0.31h-1.1V359.43z M324.74,265.37h-0.63v0.31h0.63V265.37z M325.37,348.32c0,0.47,0.31,0.78,0.78,0.78
			l0.31-0.47c0.16-0.16,0.16-0.31,0.16-0.31H325.37z M328.35,273.19c0-0.16-0.16-0.31-0.31-0.47l-0.31-0.31
			c-0.78,0.31-1.25,0.63-1.25,0.94L328.35,273.19z M328.03,343.15h0.31l0.16-0.31l-0.16-0.16L328.03,343.15z M333.04,264.27h-1.25
			v0.63h1.25V264.27z M335.55,320.14h1.88v-0.47h-1.88V320.14z M341.82,317.64c0.31-0.47,0.47-0.63,0.63-0.78
			c0.16-0.31,0.31-0.47,0.31-0.63l-0.31-1.1c-0.16-0.16-0.31-0.63-0.63-1.41V317.64z M342.75,304.65c0.31,0,0.47,0,0.78,0.16
			c0.31,0,0.63,0.16,0.78,0.16l0.63-0.78v-1.25c-0.16-0.16-0.94-0.47-1.25-0.47l-0.94,0.63V304.65z M343.54,274.44h-0.31v0.78h0.31
			V274.44z M343.54,361.93c0.31,0,0.63-0.16,0.94-0.47h-0.63C343.85,361.78,343.69,361.93,343.54,361.93z M343.85,354.42l1.88,0.31
			v-0.47l-1.57-0.47L343.85,354.42z M345.42,263.17h-0.31v0.47h0.31V263.17z"/>
		<path class="st1" d="M395.85,339.86c9.87,0,12.06-5.79,13.16-12.21c0.16-0.94,0.47-2.03,0.47-3.44c0.16-1.25,0.31-3.13,0.47-5.95
			c0.47-5.63,0.78-12.05,1.1-19.09v-0.16l1.88-37.25c0.16-2.03,1.1-2.97,3.13-2.97h19.26c1.72,0,3.13,1.56,3.13,3.29l-1.41,37.72
			v10.33c0,7.67-0.63,15.65-2.04,23.16c-1.57,7.51-4.54,14.87-9.55,20.66c-8.61,9.7-20.99,12.68-33.52,12.36
			c-7.05-0.16-15.97-1.25-21.3-6.26c-5.33-4.85-7.52-12.21-8.3-19.25c-0.78-5.63-0.63-11.74-0.63-17.53
			c0.16-8.14,0.78-16.28,1.57-24.42l3.92-37.25c0.16-1.88,1.25-2.82,3.13-2.82h19.26c1.72,0,3.29,1.72,3.13,3.44l-2.98,37.72
			l-1.41,20.66C387.39,330.63,387.86,339.86,395.85,339.86z M368.44,305.9c-0.94,0.47-1.72,0.94-1.88,1.41
			c0.16,0.31,0.31,0.47,0.78,0.47C368.59,307.78,368.44,306.68,368.44,305.9z M368.75,301.68v-1.88c-0.63,0.16-0.94,0.16-1.1,0.16
			c-0.31,0-0.47,0.16-0.63,0.16l-0.16,0.63C367.18,301.05,367.65,301.52,368.75,301.68z M367.81,282.27l-0.16,5.63
			c0,0.16,0,0.16,0.16,0.31c0.16,0,0.31,0.16,0.31,0.31c0.16,0,0.47-0.16,0.78-0.63c0.31-0.63,0.47-1.25,0.47-1.88
			c-0.31,0.31-0.47,0.31-0.63,0.31c0-0.16-0.16-0.16-0.31-0.16v-0.31c0.31-0.16,0.78-0.63,1.1-1.1l0.94-19.88h-0.78
			c-0.31,0-0.47,0.16-0.63,0.31c0,0.16-0.31,0.16-0.78,0.16c0.78,0.47,0.78,0.63,1.1,1.72v1.1c0,0.47-0.31,0.78-0.63,1.1
			c0,0,0.16,0.63,0,0.78c0,0.16-0.16,0.31-0.31,0.47l-0.16,2.03c-0.16,0.16-0.31,0.31-0.31,0.47c0,0.16,0.16,0.31,0.16,0.47
			c0.16,0.16,0.31,0.31,0.31,0.47c-0.16,0.78-0.31,1.25-0.47,1.72l-0.31,1.1c0,0.16,0.16,0.47,0.31,0.78s0.31,0.63,0.31,0.78
			c0,0.47,0.16,0.78,0.16,1.1c0.16,0.63,0.16,0.94,0.16,0.94c0,0.16-0.16,0.47-0.31,0.94C367.97,281.64,367.81,281.96,367.81,282.27
			z M392.09,346.44l1.72-0.16c-0.31-0.78-1.1-1.1-1.25-1.25c-0.31,0.31-0.63,0.47-0.63,0.78
			C392.09,346.12,392.09,346.12,392.09,346.44z M398.51,341.59c-0.16,0-0.31-0.16-0.63-0.16c-0.47,0-1.25-0.16-2.66-0.16
			c-0.31,0.31-0.47,0.47-0.47,0.63c0.47,1.25,1.25,0.94,2.04,0.94C397.72,342.84,397.88,342.84,398.51,341.59z M403.05,344.25h-0.47
			l-0.16,2.82h0.16L403.05,344.25z M403.21,341.59l-0.47-0.16l-0.16,0.47l0.31,0.16L403.21,341.59z M408.06,339.55h-1.1l-0.31,0.63
			h1.41C408.22,340.02,408.22,339.86,408.06,339.55z M416.36,332.98v-0.31l-0.47,0.31v0.31L416.36,332.98z M418.24,300.89
			c-0.31,0-0.63-0.16-0.94-0.16v0.47c0,0.16,0.16,0.31,0.31,0.31c0,0,0.16,0,0.16-0.16C417.93,301.36,417.93,301.05,418.24,300.89z
			 M419.18,320.93c-0.16-0.16-0.31-0.16-0.63-0.16h-0.31c0,0.16-0.16,0.16-0.31,0.16c0.31,0.16,0.47,0.31,0.47,0.47
			c0.16,0,0.31,0,0.47-0.16L419.18,320.93z M418.4,335.17l0.16-0.63h-0.47l-0.16,0.63H418.4z M422.16,316.23h-1.1l-0.31,0.63H422
			C422.31,316.7,422.31,316.54,422.16,316.23z M434.84,264.74v-0.63c0-0.47,0.31-2.19-1.1-2.19c-1.1,0-1.25,2.03-1.25,2.35v0.94
			c0.16,0.31,0.16,0.78,0.16,1.72v1.88c0.16,0.94,0.16,1.56,0.16,1.88h1.72c-0.16,0-0.16,0-0.16-0.16c0-0.16-0.16-0.16-0.16-0.16
			c0-0.94,0.16-1.88,0.47-3.44C434.84,265.68,434.84,264.9,434.84,264.74z"/>
		<path class="st1" d="M523.48,262.08c-1.57,16.12-2.66,32.24-2.98,48.52c-0.16,2.35-0.16,4.7-0.16,7.04s-0.16,4.7-0.16,7.04h-0.78
			c-0.47,0-0.94,0-1.1,0.16c-0.16,0.16-0.94,0.16-2.04,0.16l0.31,0.31l-0.31,0.31h0.31c0.16,0,0.31,0,0.63-0.16
			c0.31,0.16,0.78,0.16,1.57,0.16h1.1c0.16,0,0.31,0,0.31,0.16v0.31h-0.78l0.31,0.16l-0.31,0.31h0.78
			c-0.16,11.89-0.16,23.79-0.16,35.53c0,2.19-1.1,3.29-3.13,3.29l-20.67,0.47c-1.57,0-2.51-0.63-3.13-2.03l-2.35-6.57h0.16v-0.16
			h-0.31l-12.37-32.87c0.63-0.31,1.25-0.63,1.88-1.1l-0.78,0.16l-0.31-0.16c-0.16,0-0.47,0.16-0.78,0.16
			c-0.16,0-0.31,0.16-0.31,0.16l-5.95-15.65l-1.1,55.4c-0.16,2.03-1.25,3.13-3.29,3.13h-21.14c-1.88,0-3.13-1.41-3.13-3.29
			c0.31-7.67,0.78-15.49,1.25-23.16c0.78-15.49,1.41-28.95,2.82-45.54l2.82-32.71c0.16-1.88,1.1-2.82,3.13-2.97l15.04-0.47
			c7.05-0.47,11.75,4.23,14.41,10.33l0.16,0.16l13,33.96l2.51-41.48c0-2.03,1.1-2.97,3.29-2.97l18.64,0.47
			C522.23,258.64,523.48,260.36,523.48,262.08z M459.9,323.27l-0.31-0.94c-0.94,0.47-1.25,0.78-1.25,1.25
			C458.96,323.59,459.58,323.43,459.9,323.27z M460.21,288.69h0.94v-0.47h-0.94V288.69z M460.52,325.62h3.13
			c-1.41-0.78-1.88-0.94-1.41-0.78l-0.47-0.31c-0.63-0.16-1.1-0.16-1.57-0.31L460.52,325.62z M461.78,316.86h-1.25v1.1h1.25V316.86z
			 M462.72,322.96l-0.94,0.47v0.63l1.25-0.47L462.72,322.96z M463.03,333.45c-0.63,0-0.94,0-0.94,0.16
			c-0.31,0.16-0.31,0.31-0.31,0.47l0.94,0.63c0.16-0.31,0.31-0.63,0.31-0.78V333.45z M463.03,343.78h-0.94v1.1h0.94V343.78z
			 M462.4,281.02l0.94,0.47c0-0.47-0.16-0.78-0.31-0.94C462.72,280.55,462.56,280.7,462.4,281.02z M464.6,310.28
			c0-0.31-0.16-0.63-0.31-0.94v-0.31c-0.63,0-1.25,0.16-1.57,0.47v0.78H464.6z M463.66,312.94c0.78-0.47,0.47-0.94-0.94-1.25v0.94
			L463.66,312.94z M463.03,316.39h1.57l-0.78-1.1C463.34,315.61,463.03,315.92,463.03,316.39z M463.03,328.44h1.57v-0.78h-1.57
			V328.44z M464.28,288.37h-0.94V289c0.16,0.16,0.31,0.31,0.31,0.47C464.13,289.16,464.28,288.84,464.28,288.37z M464.6,299.17
			h-1.25v0.63h1.25V299.17z M464.91,345.81c-0.31-0.16-0.78-0.31-1.57-0.31v1.1C464.28,346.28,464.75,345.97,464.91,345.81z
			 M464.91,329.85h-0.94v1.1h0.94V329.85z M464.6,313.1h1.1v-0.63h-1.1V313.1z M468.67,289.94l0.16-0.31H466v-0.47h-1.25v0.63H466
			v-0.16l0.31,0.31c0.31,0.16,0.47,0.31,0.63,0.31c0,0.16,0.16,0.16,0.47,0.16S468.2,290.25,468.67,289.94z M466.79,348.79h-1.57
			v0.94h1.57V348.79z M467.1,291.19c-0.47-0.31-0.94-0.31-1.41-0.31C466,291.35,466.47,291.5,467.1,291.19z M467.88,307h-1.57
			C467.1,308.09,467.73,307.78,467.88,307z M468.67,316.7h-0.94v1.25h0.94V316.7z M468.82,290.25l0.94,0.31l0.31-0.47l-1.25-0.31
			V290.25z M469.14,306.21h1.1v-0.94h-1.1V306.21z M471.02,308.72h-1.57v0.63h1.57V308.72z M470.7,335.95h-1.1v0.94h1.1V335.95z
			 M469.92,288.37c0,0.47,0.16,0.94,0.31,1.25c0.31-0.16,0.47-0.16,0.47-0.16s0.16-0.16,0.31-0.16
			C470.86,289.16,470.55,288.69,469.92,288.37z M470.08,300.58v0.63h1.57v-0.63H470.08z M472.11,290.25
			c-0.47-0.31-0.78-0.47-1.1-0.47c-0.16,0.16-0.31,0.31-0.16,0.47v0.47C471.33,290.72,471.8,290.56,472.11,290.25z M471.17,304.65
			c0.16,0.63,0.31,1.25,0.78,1.56C472.58,305.59,472.43,305.12,471.17,304.65z M475.09,307.47h-2.19
			C473.84,307.78,474.62,307.78,475.09,307.47z M478.06,315.14c-0.16,0-0.16-0.16-0.16-0.16c-0.31,0-0.47-0.16-0.63-0.31
			c-0.16,0-0.31,0.31-0.31,0.63v0.31h1.1V315.14z M480.26,307.47h0.78v-0.94h-0.78V307.47z M482.76,323.12
			c-0.31-0.31-0.63-0.63-1.1-0.78c-0.16,0.31-0.47,0.47-1.1,0.63c0.16,0.16,0.31,0.16,0.47,0.16c0.16,0,0.16,0.16,0.31,0.16
			c0.47,0.16,0.63,0.31,0.63,0.31s0.16,0,0.47-0.16L482.76,323.12z M481.67,311.69h1.1v-0.47h-1.1V311.69z M481.82,306.21l0.31,0.47
			l2.04-1.41l-0.78-0.31C483.39,305.9,483.39,306.21,481.82,306.21z M483.08,314.51l1.1-0.16c-0.16-0.47-0.31-1.1-0.31-1.88
			c-0.16,0.31-0.31,0.31-0.31,0.47l-0.47,0.47c-0.31,0.16-0.47,0.16-0.47,0.16s0,0.16-0.16,0.31c0.16,0.16,0.31,0.31,0.31,0.47
			L483.08,314.51z M483.08,307.47l-0.31-0.31c0,0.16-0.16,0.31-0.16,0.47c0,0.16,0.16,0.31,0.31,0.63h0.16v-0.47
			C483.23,307.78,483.08,307.62,483.08,307.47z M483.23,322.18l0.78,0.31l0.63-0.94l-0.94-0.16L483.23,322.18z M483.86,331.57
			c0.16,0,0.47,0,0.94-0.16l-0.63-0.47C483.7,330.94,483.39,331.41,483.86,331.57z M483.7,309.66v0.63h0.63v-0.63H483.7z
			 M484.8,327.19c-0.16-0.63-0.47-0.94-0.94-0.94c-0.16,0.16-0.16,0.31,0,0.47c0,0,0,0.16,0.16,0.16
			C484.17,326.87,484.49,327.03,484.8,327.19z M485.74,335.48c-0.31-0.47-0.78-0.63-1.41-0.63v0.63
			C484.64,335.64,485.11,335.64,485.74,335.48z M484.49,319.36c0,0.47,0.47,0.94,1.41,0.94v-0.94H484.49z M486.21,321.4l-1.72,0.47
			l0.16,0.47l1.88-0.47L486.21,321.4z M484.64,328.28c0,0,0.16,0,0.31-0.16h0.16c0.16,0,0.31-0.16,0.47-0.31h0.16l0.16-0.16
			c-0.63-0.16-0.94-0.31-1.25-0.31V328.28z M485.74,333.29l1.1-0.31l-0.31-0.47l-1.1,0.16L485.74,333.29z M486.37,329.54l-0.31,0.47
			l0.78,0.31l0.31-0.63L486.37,329.54z M488.4,340.8l-1.57,0.47c0,0.31,0.31,0.31,0.63,0.31c0,0.16,0.16,0.16,0.31,0.16
			c0,0,0.16,0,0.47,0.16C488.09,341.74,488.09,341.27,488.4,340.8z M487.3,337.2h0.63v-0.78h-0.63V337.2z M488.4,339.71h-1.1v0.78
			h1.1V339.71z M487.46,320.61c0,0.63,0.47,0.94,1.25,1.1c0.16-0.16,0.31-0.16,0.47-0.16l0.47-0.16
			C488.71,320.93,487.93,320.61,487.46,320.61z M488.71,322.8l1.25-0.16l-0.16-0.63l-1.25,0.31L488.71,322.8z M491.22,337.52
			c-0.31-0.47-0.31-0.31-1.25-0.63l-0.63-0.16l0.63,1.1L491.22,337.52z M490.28,332.51h-0.31c0,0.31,0.31,0.63,0.63,1.09
			c0.16,0.31,0.47,0.63,0.63,0.78c0.31-0.16,0.63-0.31,0.94-0.63c0.31-0.31,0.78-0.47,1.25-0.94c-0.47,0.16-0.78,0.16-0.94,0.16
			h-0.31c-0.16,0.16-0.31,0.16-0.31,0.16l-0.31,0.16c-0.16-0.16-0.31-0.31-0.31-0.47s0-0.31-0.31-0.47h-0.16
			C490.59,332.51,490.59,332.51,490.28,332.51z M490.75,328.6h0.78l-0.31-1.1l-0.47,0.16V328.6z M491.22,346.75v0.16
			c0.47,0.16,0.63,0.31,0.63,0.31l3.45-1.88c-0.78,0.31-1.41,0.31-1.72,0.31c-0.16,0.16-0.47,0.31-1.1,0.31
			c-0.63,0.16-1.25,0.31-1.72,0.63c0.16,0.16,0.31,0.16,0.31,0.16H491.22z M493.73,334.54h-0.31c0,0-0.31,0-0.47,0.16
			c0,0,0.16-0.16,0.16-0.31h-1.25c-0.16,0.16-0.31,0.16-0.63,0.16c0.16,0.47,0.31,0.63,0.63,0.63l0.31,0.31
			c0.16-0.16,0.31-0.16,0.47-0.47h1.41l1.25-0.31l-0.31-0.47L493.73,334.54z M494.35,353.64l-1.57,0.31h-0.31
			c0,0-0.31,0.16-0.63,0.16c0.31,0.31,0.31,0.78,0,1.1c0.63,0,1.1-0.16,1.25-0.47c0.78-0.47,0.94-0.63,0.63-0.47
			C493.73,354.26,494.04,354.11,494.35,353.64z M494.35,337.36v-0.47c0-0.31-0.31-0.63-0.94-0.78l-1.25,0.31v0.63
			C492.94,337.52,493.73,337.52,494.35,337.36z M492.16,342.37l0.63,1.41C493.41,343.15,493.1,342.84,492.16,342.37z M493.41,339.71
			l0.94,2.19l0.63-0.16l-0.94-2.19L493.41,339.71z M496.7,345.66c0,0,0.16,0,0.47-0.31l0.31-0.31l0.31-0.16l-0.47-1.1h-0.63
			c-0.16,0-0.47-0.16-0.78-0.31c0,0.31,0.16,0.63,0.31,0.94c0,0,0,0.16,0.16,0.16v0.31c0.16,0.16,0.16,0.31,0,0.47
			c0,0.16-0.47,0.31-1.1,0.78C496.08,345.97,496.54,345.81,496.7,345.66z M495.61,335.01l0.63,0.94l0.63-0.31l-0.47-0.94
			L495.61,335.01z M500.46,344.4c-1.25-0.63-1.88-1.1-2.04-1.57v-0.78c0,0,0-0.16,0.16-0.16l-0.16-0.16
			c-0.47,0.16-0.78,0.31-0.94,0.31c-0.16,0.16-0.31,0.16-0.78,0.31l-0.31,0.31l-0.47,0.31c0.31,0,0.63,0.16,1.1,0.16
			c0.16,0,0.47,0,0.94,0.16c0.16,0.47,0.31,0.78,0.63,1.1C498.89,344.87,499.52,344.72,500.46,344.4z M496.39,311.54l0.16,0.16
			l0.31-0.47h-0.31L496.39,311.54z M498.74,350.19l-1.1-1.1l-0.94,0.94c0.16,0.16,0.31,0.16,0.31,0.16c0.16,0,0.31,0.31,0.31,0.31
			L498.74,350.19z M499.68,350.66c0.31,0,0.47,0,0.63-0.16l-0.16-0.16c-0.16,0-0.31,0-0.63-0.31
			C499.21,350.51,499.36,350.66,499.68,350.66z M502.18,351.45c-0.31,0-0.63-0.16-0.94-0.16c0,0.16-0.31,0.16-0.47,0.16h-0.16
			l-0.63,0.94v0.16h0.16l0.63-0.94c0.47-0.16,0.78-0.16,1.25,0L502.18,351.45z M500.3,321.87l0.63,0.31l0.47-0.63l-0.63-0.16
			L500.3,321.87z M500.3,327.03c0.16,0.47,0.31,0.78,0.63,0.94c0.31-0.16,0.31-0.31,0.16-0.78h-0.63L500.3,327.03z M500.3,339.71
			c0.47,0.16,0.78,0.31,1.1,0.31c0.31-0.16,0.31-0.63-0.16-0.94L500.3,339.71z M500.77,348.47l-0.16,0.78l0.78,0.16l0.16-0.94
			H500.77z M501.71,346.44l0.31,0.63l2.04-1.56l-0.78-0.16C503.28,346.28,503.28,346.44,501.71,346.44z M504.22,351.6l-0.16-0.16
			c-0.31,0.16-0.63,0.47-0.78,0.78h-0.16l0.16,0.16c0.16-0.31,0.31-0.63,0.78-0.78H504.22z M504.85,315.29h-0.31v0.47h0.31V315.29z"
			/>
		<path class="st0" d="M560.13,260.98l-3.76,73.87l35.86-0.47c1.88,0,3.29,1.41,3.29,3.29l-0.47,22.54c0,2.03-1.1,3.13-3.13,3.13
			l-59.98,2.97c-1.1,0-1.72-0.31-2.35-0.94c-0.63-0.63-0.94-1.25-0.94-2.35l4.86-102.83c0.16-2.03,1.25-2.97,3.29-2.97l20.2,0.47
			C558.72,257.7,560.13,259.26,560.13,260.98z M537.26,354.73l0.16,0.31l0.31-0.16l-0.16-0.16H537.26z M538.36,354.73l1.88,0.31
			l0.63-0.63l-0.31-0.16c-0.16,0-0.31-0.16-0.63-0.16C539.3,354.11,538.52,354.58,538.36,354.73z M538.36,356.77v0.31l0.78-0.31
			l-0.16-0.16L538.36,356.77z M543.06,329.07c0-0.63-1.72-1.1-1.88-1.1c-0.31,0-0.78,0.16-1.25,0.63c-0.31,0.47-0.47,0.78-0.47,1.1
			c0,0.16,0,0.31,0.16,0.63c0.16,0.31,0.63,0.31,1.25,0.31C541.8,330.63,543.06,329.69,543.06,329.07z M542.12,343.93v-0.78
			l-1.25-0.16v0.78h0.78C541.8,343.93,541.8,343.93,542.12,343.93z M545.56,348.79v-0.63c-0.16,0-0.31,0-0.31-0.16
			c-0.16,0-0.31-0.16-0.31-0.16c-0.47,0-0.63,0.31-0.63,0.63c0,0.31,0,0.31,0.16,0.31l0.47,0.31
			C544.94,348.94,545.25,348.79,545.56,348.79z M547.6,307.15v-0.63h-0.47l-0.63,0.31c0.31,0.16,0.31,0.31,0.31,0.31
			c0,0.16,0.31,0.31,0.63,0.16C547.6,307.31,547.6,307.15,547.6,307.15z M548.23,352.38l0.63-0.47c-0.16,0-0.31,0-0.31-0.31
			s-0.31-0.47-0.63-0.31c-0.16,0.16-0.31,0.16-0.47,0.16c0,0.16,0.31,0.16,0.47,0.47c0.16,0,0.16,0.16,0.16,0.31
			C548.07,352.23,548.23,352.23,548.23,352.38z M549.01,350.66v-1.09h-0.31c-0.16-0.16-0.31-0.16-0.47-0.16
			c-0.16,0.47-0.16,0.94,0,1.57C548.7,350.66,548.85,350.66,549.01,350.66z M551.04,356.3v-0.63c-0.16,0-0.16,0-0.31-0.16h-0.78
			c0,0,0,0.16-0.16,0.16c-0.16,0-0.16,0.16-0.16,0.31c0,0.31,0,0.47,0.16,0.47c0.16,0,0.31,0.16,0.47,0.31
			c0-0.16,0.16-0.31,0.31-0.31C550.73,356.45,550.89,356.45,551.04,356.3z M550.89,357.86l0.16-0.16c0,0-0.31-0.16-0.63-0.16v0.47
			C550.58,358.02,550.73,358.02,550.89,357.86z M552.45,344.56l-1.25-0.16v0.31l1.25,0.31V344.56z M553.55,299.02l-1.41-0.16v0.78
			h0.94c0.16,0,0.31-0.16,0.47-0.31C553.71,299.02,553.71,299.02,553.55,299.02z M552.61,265.52l0.31,0.16l0.31-0.63h-0.31
			L552.61,265.52z M554.96,357.08h-0.63c0,0-0.31-0.16-0.63-0.16c0,0.31-0.16,0.31,0,0.31v0.31c0.31-0.16,0.63-0.16,0.78-0.16
			C554.8,357.39,554.96,357.24,554.96,357.08z M557.47,347.53c-0.31-0.16-0.47-0.31-0.63-0.31v0.47c0,0.16,0.16,0.31,0.31,0.47
			C557.62,348.16,557.78,347.69,557.47,347.53z M558.41,293.38v-0.63h-0.31c0-0.16-0.16-0.16-0.31-0.16c-0.47,0-0.63,0.16-0.63,0.63
			c0,0.16,0,0.16,0.16,0.16c0,0.16,0.16,0.31,0.47,0.31c0.16-0.16,0.31-0.16,0.31-0.16S558.25,293.38,558.41,293.38z M559.97,346.91
			c-0.31,0.16-0.47,0.31-0.63,0.63c0.16,0.16,0.31,0.16,0.47,0.16h0.47v-0.31c0.16,0,0.16,0,0.31-0.16v-0.16
			c0.16,0,0.16-0.16,0.31-0.16H559.97z M564.04,349.57l-0.94,0.31c-0.63,0.16-0.78,0.31-0.78,0.63c0,0.31,0.16,1.1,1.25,1.1
			c0.31,0,1.88-0.31,1.88-1.1C565.45,350.51,564.83,349.57,564.04,349.57z M563.26,347.22l-0.16,0.47l0.94,0.31l0.31-0.47
			L563.26,347.22z M564.2,354.42l0.31-0.31c-0.16-0.16-0.16-0.16-0.31-0.16v-0.16h-0.63c-0.31,0.16-0.47,0.31-0.47,0.47
			L564.2,354.42z M567.65,357.39v-0.47c0,0-0.16-0.16-0.63-0.31c-0.16-0.16-0.31-0.31-0.47-0.31c-0.63,0-1.25,0.47-1.41,0.78v0.47
			h0.63c0.31,0,0.63-0.16,0.78,0C566.86,357.55,567.18,357.55,567.65,357.39z M567.33,344.72h-1.1c-0.31,0.31-0.47,0.63-0.47,0.63
			c0.16,0.31,0.47,0.47,1.25,0.47c0.47,0,0.78-0.47,0.78-0.63L567.33,344.72z M589.57,355.83c0.47-0.16,0.16-0.63,0-0.63
			s-0.31,0.16-0.31,0.47C589.26,355.98,589.42,355.98,589.57,355.83z"/>
		<path class="st0" d="M674.3,310.44v0.47h0.16c-0.31,5.63-1.41,12.52-2.19,16.59l-0.47-0.47c-0.31-0.31-0.47-0.47-0.47-0.63h-1.41
			c-0.16,0.16-0.16,0.47-0.16,0.47v0.16c0.31,0,0.63,0,0.78,0.16h0.94c0,0.31,0.31,0.47,0.78,0.63l-1.1,4.54h-0.94v0.16h0.94
			c-0.16,0.94-0.31,1.41-0.78,2.5c-0.16,0.47-0.63,0-0.63,0.31l0.47,0.31c-1.57,4.38-3.29,8.45-5.33,11.89h-0.16l-0.94,0.78
			l0.31,0.47l-2.19,2.97c-7.2,9.7-16.76,14.56-28.5,14.56c-10.81,0-19.11-4.23-25.22-12.68v-0.31h-0.31
			c-0.31-0.47-0.63-0.78-0.78-1.25c-2.98-4.54-5.17-9.86-6.42-15.96l0.16-0.31c0-0.16,0-0.31,0.16-0.47c0-0.16-0.16-0.31-0.47-0.47
			v0.31c-0.63-3.29-0.94-6.73-1.1-10.17c0.63-1.1,0.78-2.04,1.1-4.7l0.31-0.63v-0.94c-0.16-0.47-0.16-0.78-0.16-1.1v-1.09
			c-0.16-0.16-0.16-0.47-0.16-0.63v-3.13c0-0.31,0-0.78,0.16-1.1c0-0.47-0.16-1.1-0.31-1.41c0-0.16-0.16-0.31-0.31-0.47
			c0.16-1.41,0.31-3.13,0.63-4.7c2.51-16.12,7.99-34.12,21.93-43.98c5.33-3.6,11.12-5.48,17.54-5.48c13.78,0,23.96,7.2,28.82,17.06
			c4.7,10.02,6.73,21.44,5.48,37.72H674.3z M601.32,326.25h-0.63c-0.16,0-0.31,0.16-0.31,0.31c0,0.16,0.16,0.31,0.31,0.47
			c0.16,0.16,0.31,0.16,0.63,0.31c0-0.16,0-0.31,0.16-0.47C601.63,326.56,601.47,326.4,601.32,326.25z M601.94,321.4h-0.31v3.91
			h0.31V321.4z M602.88,304.02c0-0.31,0-0.47-0.16-0.78c-0.47,0.47-0.78,0.78-0.78,1.1c0,0.16,0.16,0.16,0.31,0.31
			c0.31,0,0.47,0.16,0.47,0.16C602.73,304.65,602.73,304.34,602.88,304.02z M602.41,305.9h-0.31v0.63h0.31V305.9z M606.01,325.93
			h-0.78v0.16l0.78,0.16V325.93z M606.48,332.51c0.16,0,0.31,0,0.47,0.31c0,0.31,0.16,0.47,0,0.63c0,0.31,0,0.63,0.16,0.63
			c0.16-0.16,0.47-0.16,0.63-0.16v-0.47c-0.47-0.31-0.78-0.63-0.63-0.94c0.16-0.31,0-0.63-0.47-0.78c-0.16,0-0.16,0-0.16,0.16
			c-0.16,0.16-0.16,0.31-0.16,0.31C606.33,332.35,606.33,332.51,606.48,332.51z M606.48,330.32c0,0,0.16,0.31,0.63,0.63v-1.25
			l-0.47,0.31C606.48,330,606.48,330.16,606.48,330.32z M606.48,335.64c0,0.31,0.31,1.57,0.94,2.19l-0.47,0.31
			c-0.16,0-0.16,0.16-0.16,0.16l0.31,0.16c0.16-0.16,0.47-0.16,0.63-0.16v-1.88c0.16-0.47,0-1.1,0-1.72h-0.63
			c-0.16,0.16-0.16,0.16-0.16,0.31c-0.16,0-0.16,0.16-0.31,0.16C606.48,335.33,606.48,335.48,606.48,335.64z M608.52,349.1
			c0-0.16,0-0.31-0.16-0.63c-0.16,0-0.16-0.31-0.16-0.47h-0.47c-0.16,0.16-0.31,0-0.47-0.16c0.16-0.16,0.47-0.31,0.78-0.31
			c0.16-0.78,0.31-1.88,0.31-3.29c-0.78-0.31-1.1-0.47-1.1-0.63v-0.78c0-0.31,0-0.47-0.16-0.63l-0.16,2.82
			c0.31,0,0.63,0.16,0.78,0.31c-1.25,0.78-1.1,0.63-1.1,1.57c0,0.16,0,0.31,0.16,0.78c0.16,0.31,0.31,0.78,0.31,1.25
			c0.16,0,0.47,0.16,0.78,0.31c-0.31,0.16-0.47,0.31-0.63,0.31c-0.16,0.16-0.16,0.16-0.16,0.31l0.16,0.16c0,0,0,0.16,0.16,0.16
			C607.27,350.19,608.52,349.41,608.52,349.1z M608.83,327.03h-0.31c0-0.16-0.31-0.16-0.63-0.16c-0.94,0-1.25,1.25-1.25,1.57
			c0,0.31,0.16,0.63,0.31,0.94h1.41l0.47-0.47V327.03z M607.11,340.49v0.63c0.16-0.16,0.16-0.31,0.31-0.31
			c0.16-0.16,0.31-0.16,0.31-0.31H607.11z M608.36,350.51l-0.31-0.16h-0.63c0,0.16-0.16,0.16-0.31,0.16v0.94h0.47
			c0-0.16,0.16-0.16,0.31-0.16c0.16,0,0.31-0.16,0.47-0.16V350.51z M618.23,318.42l-0.31-0.47c-0.16,0.31,0,0.47,0.31,0.78
			C618.39,318.58,618.39,318.42,618.23,318.42z M620.11,324.21c-0.16,0-0.31,0.47,0,0.47V324.21z M625.75,347.53
			c0-0.63-0.94-1.1-1.1-1.1c0.16-0.16,0.16-0.47,0.16-1.1h-0.78c-1.72,0.63-3.45,1.25-3.29,2.82c0.47,0,0.94,0.31,1.25,0.63
			c0.16,0,0.31,0.16,0.47,0.31c0.31,0.31,0.78,0.47,0.94,0.47C624.65,349.57,625.75,348.47,625.75,347.53z M647.83,315.76
			c0.16,0,0.47,0,0.47-0.16s0.16-0.47,0.31-0.63c0.31,0.16-0.47-0.31-0.94-0.31c0.63-7.2,0.94-13.62,0.78-20.5
			c-0.16-3.44-0.47-6.57-1.1-9.55h0.16l0.16,0.16h0.94c0-0.16,0-0.47-0.31-0.78c-0.47,0.16-0.78,0.31-0.94,0.63
			c-0.31-1.57-0.78-2.82-1.25-3.76c-1.25-2.97-3.29-4.23-6.11-3.6c-5.01,1.41-7.83,9.7-8.93,13.93
			c-3.13,10.96-3.92,23.32-3.92,34.59c0,4.23,0.47,12.36,4.54,14.87c0.63,0.31,1.25,0.63,2.19,0.63c5.48,0.94,8.14-3.44,9.71-8.14
			c1.88-5.48,3.13-11.27,3.76-17.37c0.16,0.16,0.16,0.16,0.31,0.16C647.83,315.92,647.83,315.76,647.83,315.76z M628.72,355.05
			c-0.16,0-0.16-0.16-0.16-0.31l-0.63,0.31c0.16,0.16,0.31,0.31,0.78,0.31V355.05z M628.1,263.02c0.63,0,0.94,0,1.1,0.16
			c0.16,0,0.16,0.16,0.16,0.16c0,0.16,0,0.31,0.16,0.31c0,0,0.16,0.16,0.47,0.16c0.16,0,0.47-0.16,0.63-0.31c0,0,0-0.16-0.16-0.16
			c0-0.16-0.16-0.31-0.16-0.31H628.1z M631.23,283.99h-1.1l0.31,0.78c0.31,0,0.63-0.16,0.94-0.31
			C631.39,284.3,631.23,283.99,631.23,283.99z M633.27,263.64h0.78l0.78-0.63h-1.57V263.64z M635.46,264.11h-0.94v0.16h-0.16v0.16
			c0.16,0.47,0.63,0.78,1.1,0.78c0.31,0,0.47-0.16,0.63-0.31C635.62,264.9,635.46,264.58,635.46,264.11z M642.98,352.23l-0.31-0.31
			h-1.1c-0.78,0-1.72,0.47-2.82,1.25l2.82,0.31c0.16-0.16,0.47-0.31,0.63-0.31c0.16,0,0.47,0,0.78-0.31V352.23z M641.41,357.86
			l-0.47-0.31h-0.47c-0.47,0-0.94,0.31-1.1,0.63c0.47,0.31,0.94,0.63,1.41,0.63c0.16,0,0.31-0.16,0.63-0.31V357.86z M641.57,354.58
			c-0.16,0-0.31,0-0.31-0.16h-0.47c-0.63,0.16-0.78,0.47-0.78,0.63c0,0.31,0,0.47,0.16,0.47c0,0.16,0,0.16,0.16,0
			c0.16,0,0.31,0,0.63-0.16h0.63V354.58z M643.76,263.64h1.1v-0.31h-1.1V263.64z M645.79,263.8c0.47,0.16,0.78,0.31,0.78,0.78
			c0.16,0.47,0.47,0.63,1.41,0.63c0.31,0,0.47-0.16,0.31-0.31c-0.31-0.16-0.16-0.47,0.31-0.78c0.94,0,1.41-0.16,1.57-0.16
			c0.31,0,0.47-0.16,0.47-0.31c0,0,0.16-0.16,0.16-0.47c0.31-0.16,0.63-0.31,0.94-0.31c0.31,0,0.63-0.16,0.94-0.63
			c0-0.16-0.31-0.16-0.63-0.16c-0.47,0-0.78-0.16-0.94-0.31c-0.16,0.16-0.16,0.31-0.16,0.63c0,0.16,0,0.31-0.16,0.47
			c-0.16,0-0.31,0.16-0.63,0.47c-0.31,0.31-0.63,0.47-0.94,0.47h-0.47c-0.16,0.16-0.16,0.16-0.31,0.16
			c-0.78,0.16-1.1-0.31-0.94-0.63v-0.47C646.73,263.02,645.95,263.49,645.79,263.8z M646.73,261.92c0.31,0.47,0.63,0.63,0.94,0.63
			s0.94-0.16,1.41-0.16l1.1-0.31l-0.31-0.31v-0.16c-0.31,0-0.47,0-0.63-0.16h-0.63c-0.47,0-0.94-0.16-1.41-0.31
			C646.89,261.45,646.73,261.61,646.73,261.92z M648.3,326.72c0.31-0.31,1.72-0.63,2.82-0.63c0.31,0,0.47,0,0.63,0.16h0.63
			c0.47,0,1.57-0.31,2.19-0.63v-0.47l-0.16-0.16h-1.72c-0.16,0-0.63,0-1.25-0.16l-0.63-0.16c-0.31,0-0.63,0-0.94,0.31
			c-0.31,0.16-0.63,0.31-0.94,0.63c-0.31-0.31-0.47-0.31-0.63-0.31v-0.63C647.99,325.31,647.99,325.93,648.3,326.72z M648.46,323.12
			h-0.16c-0.16,0-0.16,0.16-0.16,0.31c0.16,0,0.16,0.16,0.16,0.31c0-0.16,0.31-0.31,0.63-0.47
			C648.61,323.27,648.46,323.12,648.46,323.12z M648.93,331.1c0,0-0.16-0.16-0.31-0.16s-0.31-0.16-0.31-0.31
			c-0.16,0.31-0.16,0.31-0.16,0.47C648.3,331.1,648.61,331.26,648.93,331.1z M648.93,320.93c0.16,0.31,0.31,0.63,0.63,0.94
			c0.31,0.31,0.78,0.47,1.25,0.47c0.63,0,0.94-0.16,1.25-0.47v-0.63c-0.78,0-1.57-0.16-2.04-0.31c-0.78,0-1.41-0.16-1.72-0.31v0.78
			C648.3,321.4,648.61,321.24,648.93,320.93z M648.93,308.09c-0.31,0.63-0.31,0.94,0,1.1c0.16-0.16,0.31-0.16,0.31-0.16
			c0.16,0,0.31-0.16,0.31-0.16C649.55,308.56,649.08,308.09,648.93,308.09z M648.93,303.08v0.31c0.31,0,0.63,0.16,0.94,0.16
			c0.31,0.16,0.63,0.16,0.94,0.16c0,0,0.16,0,0.31-0.16v-0.31c-0.31-0.31-0.78-0.47-1.25-0.47S648.93,302.93,648.93,303.08z
			 M648.93,305.9v0.47c0,0.16,0.16,0.16,0.31,0.16c0,0,0.16,0,0.31,0.31c0-0.16,0.31-0.31,0.78-0.47l0.78-0.47l-0.31-0.94
			C650.18,305.28,649.4,305.59,648.93,305.9z M655.04,347.38c-0.47-0.47-1.25-0.94-2.04-1.25c-0.63-0.16-1.25-0.31-1.57-0.47
			c-0.31-0.16-0.31-0.31-0.31-0.63l-0.31-0.31l-0.31-0.16h-0.31c-0.63,0-0.94,0.16-0.94,0.63s-0.16,0.78-0.31,1.1
			c0.16,0.16,0.31,0.31,0.47,0.31c0.16,0.31,0.31,0.31,0.47,0.31c0.16,0.31,0.31,0.31,0.31,0.63v0.31c0.78,0.47,2.19,0.94,2.35,0.94
			C652.84,348.79,654.88,347.69,655.04,347.38z M649.87,313.88c0.16,0,0.31,0.16,0.63,0.16c0.31,0,1.72-0.47,3.13-0.94l-1.88-0.94
			c-0.31-0.16-0.63-0.31-0.78-0.47l-0.78-0.47c-0.47,0.31-0.63,0.31-0.63,0.31c0,0.31-0.16,0.63-0.31,0.94v1.25
			C649.24,313.73,649.55,313.73,649.87,313.88z M649.87,317.95l-0.47,0.47c0.78-0.16,1.72-0.31,2.35-0.63h-0.31
			c0-0.16-0.31-0.16-0.63-0.16C650.49,317.64,650.18,317.8,649.87,317.95z M652.06,293.69l0.63-0.31v-1.41
			c-0.47-0.31-0.94-0.47-1.57-0.47c-0.16,0-0.16,0.16-0.16,0.31c0,0.31,0,0.31-0.16,0.47l-0.63,0.47c-0.31,0.16-0.63,0.31-0.63,0.47
			s0.31,0.47,0.63,0.63h1.25C651.43,293.85,651.75,293.69,652.06,293.69z M650.81,355.98h-0.63c-0.31,0-0.63,0.16-0.63,0.63
			c0,0.16,0.16,0.31,0.31,0.31l0.31,0.31c0.16-0.16,0.47-0.16,0.94-0.16C651.43,356.61,651.28,356.14,650.81,355.98z M653.31,314.98
			c0-0.31,0-0.47-0.16-0.47c0,0-0.16-0.16-0.31-0.16c-0.78,0-1.72-0.16-2.35,0.78c0.31,0.47,0.63,0.63,1.25,0.63
			C652.06,315.76,653.31,315.45,653.31,314.98z M652.06,353.48l0.63-0.47c0-0.16-0.31-0.78-0.31-0.94
			c-0.16,0.16-0.31,0.16-0.78,0.47c-0.31,0-0.47,0.16-0.47,0.31s0.16,0.31,0.31,0.31C651.75,353.17,651.9,353.32,652.06,353.48z
			 M652.37,328.75v-0.31h-0.94v0.31H652.37z M651.75,338.61c-0.16,0-0.31-0.16-0.31-0.16v0.78c0.31,0,0.63-0.31,0.63-0.63H651.75z
			 M653.94,310.28c-0.63-0.31-0.78-0.78-0.78-1.25c0.16-0.31,0-0.63-0.47-1.1c0,0,0,0.16-0.31,0.16c-0.16,0.16-0.47,0.16-0.47,0.16
			c0.16,0.16,0.16,0.31,0,0.47c-0.16,0.31-0.16,0.47-0.16,0.63c0,0,0.16,0.31,0.47,0.62c0.31,0.47,0.78,0.78,1.25,0.94
			C653.78,310.6,653.94,310.44,653.94,310.28z M652.37,330c0.47,0.31,0.94,0.31,1.41,0l-0.31-0.63c-0.16,0.16-0.31,0.31-0.63,0.47
			C652.53,329.85,652.37,330,652.37,330z M652.84,355.83l-0.47,0.31l0.47,0.47C653,356.3,653,355.98,652.84,355.83z M653.31,303.24
			c-0.16,0-0.31,0-0.63,0.16c0.16,0.16,0.31,0.31,0.47,0.31h0.47v-0.16l0.16-0.16C653.78,303.24,653.63,303.24,653.31,303.24z
			 M653.16,320.14l0.31,0.94c0.31-0.16,0.47-0.47,0.47-0.63C653.78,320.3,653.47,320.14,653.16,320.14z M654.1,264.11h0.78v-0.31
			h-0.78V264.11z M654.1,295.1h0.31c0.16-0.16,0.31-0.16,0.47-0.16c0,0,0-0.16-0.31-0.31l-0.47-0.31V295.1z M654.25,316.39v0.78
			l1.1-0.16C655.04,316.7,654.41,316.39,654.25,316.39z M655.19,305.43h0.47v-0.78h-0.47V305.43z M660.2,335.33v-1.25
			c-0.16-0.16-0.63-0.31-0.78-0.31c-0.16,0.16-0.16,0.31-0.31,0.31s-0.16,0.16-0.31,0.31c-0.16,0.16-0.31,0.31-0.63,0.31l-0.94-0.31
			v-0.47c0.63-0.16,1.1-0.31,1.1-0.47v-0.63h-0.94c-0.63,0-1.25,0.31-2.04,0.47v1.1c0,0.47,0.16,0.63,0.16,0.94h0.94
			c0.78,0,1.57-0.31,2.35-0.63C659.26,335.17,659.58,335.33,660.2,335.33z M656.92,336.58c-0.63-0.47-1.25-0.78-1.57-0.94v0.63
			l0.47,0.31H656.92z M655.98,306.53h1.1c0-0.31,0-0.63-0.31-1.25c0,0.31,0,0.47-0.31,0.63
			C656.13,306.21,655.98,306.37,655.98,306.53z M655.98,309.66c0.31,0.31,0.47,0.16,0.31-0.16c0-0.16-0.16-0.31-0.16-0.47
			c0,0-0.16,0.31-0.16,0.47V309.66z M660.52,332.51c0.16,0,0.16-0.16,0.16-0.47c0-0.16-0.16-0.47-0.47-0.63
			c-0.31-0.16-0.47-0.31-0.47-0.47s0.16-0.47,0.47-0.78c0.31-0.31,0.47-0.63,0.47-0.78c0-0.31-0.78-1.72-0.78-1.56h-1.72l0.31,0.31
			v0.94c0,0.31-0.16,0.78-0.31,1.1c-0.31-0.31-0.47-0.63-0.47-0.94c0-0.16-0.31-0.31-0.94-0.47c-0.47,0.63-0.63,1.25-0.47,1.88
			c0.47,0.16,0.78,0.16,1.41,0.16c0.47,0,0.94,0.16,1.41,0.31c-0.31,0.47-0.47,0.94-0.47,1.57c0.63,0.16,1.1,0.16,1.72,0
			C660.36,332.51,660.52,332.51,660.52,332.51z M657.85,316.08h-0.94c-0.16,0.47,0,0.78,0.47,1.1h0.78c0-0.31,0-0.63-0.16-0.63
			C658.01,316.39,657.85,316.23,657.85,316.08z M657.07,325.62c0,0.31,0.16,0.31,0.16,0.31c0.16,0,0.16,0.16,0.16,0.31h1.41
			c0.16,0.16,0.47,0.16,0.63,0.16c0.31-0.16,0.47-0.47,0.47-1.1c-0.63-0.16-1.1-0.31-1.41-0.31
			C657.85,325,657.07,324.84,657.07,325.62z M658.17,345.34c0.16,0,0.47,0,0.63-0.16h0.47l-0.31-0.78
			c-1.25,0.31-1.57,0.47-1.88,0.63C657.38,345.34,657.7,345.34,658.17,345.34z M659.89,345.97h-0.16c-0.16,0-0.47,0-0.47-0.16
			c0,0-0.16-0.16-0.47-0.16c-0.31,0-0.63,0.16-0.78,0.16c0,0.16-0.16,0.16-0.31,0.16h-0.31c0,0.16,0.31,0.31,0.47,0.47l0.31,0.47
			v0.47c-0.16,0-0.16,0.16-0.16,0.31h1.25c0.47-0.31,0.63-0.78,0.63-1.25V345.97z M658.01,324.37c0.63-0.16,0.78-0.31,0.78-0.63
			c-0.16-0.31-0.47-0.31-1.1-0.31L658.01,324.37z M658.32,321.55c0,0-0.16,0.16-0.16,0.31c0,0.31,0.16,0.47,0.63,0.63
			c0.31-0.31,0.47-0.47,0.78-0.63c-0.31-0.31-0.78-0.63-1.1-0.63C658.48,321.55,658.48,321.55,658.32,321.55z M658.48,318.74
			c0,0.31,0.16,0.47,0.31,0.47h0.47c0.16-0.31,0.31-0.63,0.16-0.94c-0.16-0.16,0.16-0.47,0.94-0.78c-0.16,0-0.16,0-0.16-0.16h-0.16
			c-0.16,0-0.16-0.16-0.16-0.16C658.95,317.64,658.48,318.74,658.48,318.74z M659.89,319.36v0.63c0.63,0.16,0.78,0.31,0.78,0.31
			l0.31-0.31v-0.16C660.83,319.52,660.52,319.36,659.89,319.36z M661.14,342.99h-0.31l-0.31,0.47l0.31,0.16L661.14,342.99z
			 M661.46,314.04h0.31l0.31-0.31l-0.31-0.16L661.46,314.04z M661.61,310.13c0.16,0,0.47-0.16,1.25-0.16c0.47,0,0.78,0.16,0.94,0.63
			l-0.94,0.94c0.78,0.31,1.41,0.47,2.19,0.31c-0.63-0.47-0.78-0.78-0.31-0.94c0.31-0.31,0.47-0.47,0.78-0.63
			c-1.57-0.47-2.51-0.78-3.29-0.94l-0.31,0.31C661.77,309.97,661.61,309.97,661.61,310.13z M662.87,317.8v-0.31h-1.25v0.31H662.87z
			 M661.61,319.52c0,0.31,0.16,0.47,0.31,0.47c0.31-0.16,0.47-0.31,0.47-0.47H661.61z M662.08,322.65v-0.47h-0.47v0.47H662.08z
			 M663.49,326.09c0.31,0,0.63,0.16,0.78,0.31c0.16-0.31,0.31-0.63,0.31-0.78c-0.16-0.31-0.16-0.47-0.16-0.63s0.16-0.31,0.31-0.31
			h-0.31c-0.16,0-0.16,0-0.16-0.16c0.16,0.63-0.16,0.94-0.94,0.78c-0.47,0-0.94,0.16-1.41,0.47c0,0,0.16,0,0.47,0.16
			C662.71,326.09,663.02,326.09,663.49,326.09z M661.93,330.63l0.31,0.94c0.47-0.16,0.63-0.31,0.63-0.63c-0.16,0-0.31,0-0.47-0.16
			C662.4,330.79,662.08,330.63,661.93,330.63z M661.93,332.51c0,0,0.16,0.16,0.31,0.16l0.47,0.31c0.31-0.47,0.63-0.63,0.94-0.47
			c0.31,0.31,0.78,0.31,1.41,0c-0.16-0.16-0.16-0.31-0.16-0.31l-0.16-0.16C663.49,332.35,662.71,332.51,661.93,332.51z
			 M662.87,328.13l-0.47-0.94c0-0.16,0-0.47-0.31-0.63c0,0.94,0,1.56,0.16,1.72c0.16-0.16,0.31-0.16,0.47-0.16H662.87z
			 M662.55,330.32v-0.78h-0.47v0.78H662.55z M663.49,342.53c-0.16-0.16-0.63-0.16-1.25-0.16c0.16,0.16,0.16,0.31,0.16,0.31
			l0.31,0.47c0.16,0,0.31,0,0.63-0.16C663.49,342.68,663.49,342.53,663.49,342.53z M666,323.12c0.16-0.47,0.47-0.63,0.47-0.78
			c-0.78,0.47-1.41,0.63-1.72,0.63c-0.16,0-0.47-0.16-0.78-0.31c-0.31-0.16-0.63-0.31-0.78-0.47c0,0.16-0.16,0.16-0.31,0.31
			c-0.16,0.16-0.31,0.16-0.47,0.16v0.78c0.47,0,0.94,0,1.57,0.16c0.31,0.16,0.78,0.16,1.1,0.16
			C665.53,323.74,665.84,323.59,666,323.12z M664.28,341.74c-0.16-0.16-0.47-0.16-0.94-0.16h-0.94l0.78,0.47
			c0.47,0.16,0.63,0.31,0.78,0.47C663.96,342.21,664.12,341.9,664.28,341.74z M662.71,308.25c0.47,0,0.78,0.16,1.1,0.63
			c0.47-0.47,0.47-0.78,0-1.1c-0.16,0.16-0.31,0.31-0.63,0.31S662.71,308.25,662.71,308.25z M663.18,327.34h1.57
			c0.16,0,0.31-0.16,0.31-0.16c0-0.16,0.16-0.31,0.31-0.31c-0.47,0-0.94,0-1.1-0.16h-0.94L663.18,327.34z M663.34,333.45v0.31h0.78
			v-0.31H663.34z M665.06,317.8c0.16-0.16,0.16-0.31,0-0.63h-1.1l-0.16,0.63H665.06z M669.13,330c-0.31,0-0.63-0.31-0.94-0.63
			c-0.31-0.31-0.63-0.47-0.78-0.47c-0.31,0-0.31,0-0.31,0.16h-0.16c-0.47,0-1.1-0.16-1.88-0.63c0.31,0,0.78-0.16,1.41-0.31
			c0.16,0,0.63-0.16,0.94-0.16c0,0.31,0.16,0.63,0.16,0.78h0.63c0.16,0,0.47,0,0.47-0.16l0.16-0.16v-0.47
			c-0.31-0.16-0.78-0.16-0.94-0.47c-0.31,0-0.63-0.16-0.78-0.47c0.63-0.47,1.1-0.78,1.41-0.78c-0.31-0.31-0.63-0.63-1.1-0.94
			c-0.47-0.16-1.1-0.31-1.88-0.16l1.41,1.1c-0.16,0.16-0.31,0.31-0.47,0.31c-0.31,0.31-0.63,0.31-0.78,0.47
			c0.16,0.47-0.31,0.94-1.57,1.72l-0.31,0.47c0.47,0.16,1.1,0.31,1.88,0.31l1.88,0.47v0.47c-0.16,0.16-0.47,0.16-0.78,0.16
			c0.31,0,0,0.16-0.63,0.31c0.31,0.31,0.78,0.47,1.41,0.47l0.31-0.47C668.19,330.79,668.97,330.16,669.13,330z M664.9,337.67
			c0-0.16-0.47-0.63-0.94-0.63l-0.16,0.63H664.9z M667.88,312.79h-0.31c0-0.16-0.16-0.16-0.47-0.16c-0.16,0-0.31,0-0.31,0.16h-0.47
			c-0.47,0-0.78,0.31-0.78,0.63c0.47,0,0.63,0,0.78-0.31c0.16,0.31,0.31,0.31,0.16,0.31v0.31l-2.51,1.1c0,0.63,0,1.09,0.16,1.41
			c0.16,0.63,0.63,0.31,0.78,0.31h0.63c0,0,0.31,0,0.78,0.31c0.31,0.16,0.78,0.47,1.1,0.78l-0.47,0.31c-0.16,0-0.16,0-0.16-0.16
			h-0.31c-0.31,0-0.63,0-0.94,0.31c-0.31,0.16-0.63,0.31-0.78,0.31h-0.78c0.31,0.31,0.47,0.63,0.47,0.78
			c0.16,0.31,0.16,0.47,0.47,0.78c0,0.31,0.31,0.63,0.63,0.63c0.47,0.16,0.94,0.16,1.57,0c-0.47-0.31-0.47-1.09-0.47-1.09h-0.31
			c-0.63,0-0.94-0.16-0.94-0.31v-0.16l1.1-0.31c0.47,0,0.78-0.16,0.94-0.16c0.31-0.16,0.63-0.16,0.78-0.47
			c0.31-0.16,0.63-0.31,0.78-0.47c-0.63,0-0.78-0.16-0.94-0.47v-0.63h-0.31c-0.16,0-0.16-0.16-0.16-0.31s0-0.31,0.16-0.47l0.47-0.31
			c-0.16-0.16-0.31-0.16-0.63-0.47c-0.31-0.16-0.47-0.31-0.47-0.47c0-0.47,0.63-0.47,1.41-0.47c-0.31-0.16-0.47-0.31-0.63-0.47
			c-0.16-0.16-0.31-0.31-0.31-0.47h0.78c0.31,0.16,0.94,0.31,1.88,0.16c0-0.16,0-0.31,0.16-0.47c0.16-0.16,0.16-0.31,0.16-0.47
			c0-0.47-1.25-0.78-1.57-0.78c0,0,0,0.31-0.31,0.78C668.5,312.63,668.19,312.79,667.88,312.79z M664.59,330.94
			c0.31,0,0.47,0,0.78-0.16c0-0.16-0.16-0.16-0.47-0.16h-0.94C664.12,330.63,664.43,330.79,664.59,330.94z M665.53,343.78h-0.78
			v0.47h0.78V343.78z M668.66,335.79c-0.31,0-0.63-0.16-0.78-0.16c-0.31,0-0.63,0-0.78-0.16c0-0.31,0.16-0.78,0.47-1.1
			c-0.47,0.16-0.78,0.31-1.1,0.31c-0.63,0-0.94,0.16-1.41,0.31v0.94h1.88C667.72,335.95,668.35,335.79,668.66,335.79z
			 M666.62,337.05c-0.16,0-0.31-0.16-0.78-0.16c-0.16-0.16-0.47-0.16-0.78-0.16l0.78,0.78c0.31-0.31,0.31-0.31,0.47-0.31
			C666.47,337.2,666.47,337.05,666.62,337.05z M666.16,340.65c-0.47-0.31-0.63-0.63-0.63-0.94c-0.16,0-0.31,0.16-0.31,0.47
			c0,0.16-0.16,0.31-0.16,0.47H666.16z M665.37,308.41c0,0.31,0,0.31,0.16,0.47l0.31,0.31c0.16-0.16,0.31-0.47,0.31-0.78H665.37z
			 M665.84,311.85c0,0.31,0.16,0.47,0.47,0.63h0.78c0.31-0.31,0.31-0.47,0.31-0.47c0.31,0,0.31-0.16,0.31-0.47
			C666.94,311.38,666.31,311.54,665.84,311.85z M670.85,320.93c-0.63,0-0.94-0.16-1.1-0.47c0.63-0.31,0.78-0.63,0.47-0.94
			c-0.16-0.16-0.31-0.47-0.31-0.78c0,0.47-0.31,0.78-0.94,0.78h-0.94c-0.47,0-0.78,0-0.94,0.16c0.47,0,0.94,0,1.25,0.16
			c0.16,0.16,0.31,0.31,0.63,0.47C669.44,320.77,669.76,321.24,670.85,320.93z M668.82,324.68c-0.16,0-0.16-0.16-0.16-0.16
			l-0.16-0.16l-0.47,0.31H668.82z M668.5,309.35l1.1,0.16v-0.16l-1.1-0.31V309.35z M669.76,323.43h-1.1v0.31h1.1V323.43z
			 M671.32,317.48c-0.16-0.31-0.31-0.63-0.31-0.78s-0.16-0.31-0.63-0.47c-0.47,0.31-0.63,0.47-0.78,0.47
			c-0.16,0.16-0.31,0.31-0.31,0.47l0.31,0.16v0.16h0.78C670.85,317.64,671.17,317.64,671.32,317.48z M670.85,314.82l-1.25-0.47
			c0.16,0.78,0.63,1.1,1.41,1.1c0.31,0,0.47,0,0.47-0.16h0.31C671.64,315.14,671.32,314.98,670.85,314.82z M669.76,329.85v0.47h0.31
			v-0.47H669.76z M671.17,323.27h-0.94c-0.16,0.16-0.16,0.31,0,0.47c0,0,0.16,0.16,0.16,0.31c0,0,0-0.16,0.16-0.16
			c0-0.16,0-0.16,0.16-0.31L671.17,323.27z M670.23,310.6c0,0.31,0.16,0.63,0.31,0.63l0.94-0.16c0-0.16,0-0.16-0.16-0.31v-0.31
			c-0.16,0-0.31,0-0.63,0.16H670.23z M671.17,309.66h2.19v-0.31h-2.19V309.66z M671.95,314.35c0,0,0.16-0.16,0.16-0.31l0.16-0.16
			l-1.1-0.16C671.17,314.04,671.32,314.2,671.95,314.35z M673.52,319.52c-1.1-0.16-1.41-0.31-1.1-0.31c-0.63,0-1.72-0.31-0.47,0.47
			c0.16,0.16,0.47,0.31,0.94,0.31C673.05,319.99,673.2,319.83,673.52,319.52z M672.26,311.38h0.94
			C672.73,310.91,672.42,310.91,672.26,311.38z M672.58,320.3c0,0-0.16,0.16-0.16,0.31c-0.16,0.16-0.16,0.16-0.16,0.31h0.31
			l0.16-0.16C673.2,320.77,672.73,320.3,672.58,320.3z M674.77,304.18l-1.57-0.31l-0.31,0.31c0,0.16-0.16,0.16-0.16,0.31
			c0.31-0.16,0.78-0.16,1.25-0.16C674.3,304.18,674.61,304.18,674.77,304.18z M673.52,314.67h-0.78v0.31h0.78V314.67z"/>
		<path class="st0" d="M759.03,288.53c0,4.07-0.94,8.61-2.04,12.52c-0.31,1.57-1.41,2.35-2.98,2.35h-21.77
			c-1.88,0-3.13-1.41-3.13-3.13c0-0.31,0-0.78,0.16-1.1c0.47-1.56,1.57-5.79,2.35-8.92c0.47-2.5,0.94-4.85,0.94-6.89
			c0-1.09-0.16-1.88-0.47-2.66c-0.78-1.25-1.72-1.88-2.98-1.88c-11.28,0-18.79,26.14-18.79,42.57c0,7.2,0.94,20.03,8.77,21.44
			c3.76,0.47,7.52-1.1,10.96-4.54c0.78-0.63,1.41-1.56,2.19-2.5c0.63-0.94,1.25-1.88,1.88-2.66c2.04-2.97,4.07-6.26,6.26-10.02
			c0.63-0.94,1.72-1.41,2.66-1.41c0.78,0,1.72,0.31,2.35,0.94l9.4,9.86c0.63,0.63,0.78,1.41,0.78,2.03s0,1.1-0.31,1.57
			c-3.29,6.1-7.36,13.15-12.37,18c-8.14,8.14-17.07,12.21-27.09,12.21c-3.45,0-7.05-0.47-10.81-1.57
			c-14.88-4.07-24.59-21.44-24.59-43.35c0-24.26,9.08-40.85,20.05-52.74c7.36-8.29,16.92-11.74,27.56-11.74
			c1.72,0,3.45,0.16,5.17,0.31c9.24,0.94,17.23,5.16,22.08,13.46C758.24,275.85,759.5,281.8,759.03,288.53z M682.75,317.33h-1.1
			v0.47c-0.16,0.31-0.16,0.47-0.16,0.47c0,0.31,0,0.47,0.16,0.63l0.31,0.47c0.47-0.31,0.78-0.63,0.78-0.78V317.33z M686.67,337.2
			l-0.47-0.31h-1.1l-0.78,0.31v0.63c0.16,0,0.31,0.16,0.31,0.16s0.31,0,0.47,0.16c0.16-0.16,0.16-0.16,0.47-0.16
			C685.89,337.67,686.51,337.36,686.67,337.2z M691.05,300.74h-0.31l-0.16-0.16c-0.63,0.16-1.1,0.47-1.1,0.78l0.63,0.31
			C690.74,301.36,691.05,301.05,691.05,300.74z M691.05,296.82h-0.78v0.31h0.78V296.82z M694.66,306.84c-0.16,0-0.31-0.16-0.63-0.31
			s-0.63-0.16-0.94-0.16h-0.94l0.16,0.31c0,0.31,0.16,0.47,0.16,0.47c0.63,0,1.41,0.16,2.19,0.47V306.84z M692.46,296.67
			c0,0.31,0.63,0.78,0.78,0.78C693.25,297.14,693.09,296.98,692.46,296.67z M692.46,303.71h0.78l0.16-0.16
			c0.16,0,0.16-0.16,0.16-0.31c-0.16-0.16-0.16-0.16-0.16-0.31h-0.94V303.71z M693.09,291.35c0.31,0.31,0.63,0.31,0.78,0.31h0.78
			L693.09,291.35z M694.66,294.32h-1.1c-0.16,0.78,0.16,1.25,0.94,1.57c0.47-0.31,0.63-0.47,0.63-0.78c0-0.31,0-0.47-0.16-0.47
			C694.66,294.48,694.66,294.48,694.66,294.32z M694.5,307.94c-0.31,0-0.47,0.31-0.47,0.63c0,0.16,0.16,0.31,0.16,0.31
			c0.16,0,0.16,0,0.31,0.31V307.94z M695.28,301.05h0.47v-0.94c-0.47,0-0.63-0.16-0.63-0.31c-0.16,0.31-0.31,0.63-0.31,0.78
			c-0.16,0.31-0.31,0.47-0.31,0.63C694.66,301.21,694.97,301.21,695.28,301.05z M699.83,296.98c-0.78-0.63-2.19-1.72-2.66-1.72
			h-0.78c0.31,0.16,0.47,0.47,0.47,0.78s0,0.47-0.16,0.47h-0.31l-0.16-0.16h-0.31c-0.16,0-0.31,0.16-0.31,0.16
			c-0.31,0.16-0.31,0.31-0.31,0.31s0.16,0.16,0.31,0.16c0,0.31,0.16,0.31,0.16,0.31c0.16,0,0.63,0,1.25-0.31
			c0.47-0.31,0.78-0.47,1.1-0.47c0.16,0,0.31,0.16,0.63,0.31c0,0.16,0.31,0.16,0.47,0.16H699.83z M695.6,290.09
			c0.31,0.31,0.63,0.47,0.94,0.47l0.31-0.47c-0.31-0.31-0.78-0.63-1.25-0.63V290.09z M696.54,301.68h-0.78l-0.16,0.63h0.78
			L696.54,301.68z M695.75,291.35v0.63c0.78,0,1.72,0.16,2.04,0.31c0.31-0.16,0.47-0.47,0.47-0.94H695.75z M697.79,338.93h-0.31
			v1.25h0.31V338.93z M699.67,298.23l-1.25-0.16v0.31l1.25,0.16V298.23z M701.86,290.09c-0.16-0.31-0.31-0.63-0.31-0.94
			c0-0.63-0.31-1.41-1.25-1.88c-0.31-0.16-0.63-0.47-0.47-0.94c-0.63,0.47-0.94,0.78-0.94,1.09c0,0.16,0.31,0.31,0.78,0.47
			c0.31,0.16,0.78,0.16,1.1,0.16c-0.16,0.47-0.47,0.78-0.78,1.1c-0.31,0.47-0.47,0.78-0.47,0.94c0,0.31,0.16,0.63,0.31,0.63h0.16
			c0-0.16,0.16-0.16,0.31-0.16c0.31,0,0.47,0,0.63,0.16c0-0.16,0,0,0.31,0.31c0-0.31,0-0.31,0.31-0.47
			C701.55,290.56,701.55,290.41,701.86,290.09z M700.45,297.29c-0.16,0.31-0.47,0.94-0.47,1.25c0,0.31,0.16,0.63,0.31,0.94h0.47
			C700.92,299.02,700.92,298.23,700.45,297.29z M700.61,309.97c0-0.47,0-0.78-0.16-1.09c-0.31,0.31-0.47,0.78-0.47,1.25
			c0,0.31,0,0.63,0.31,0.94c0.16,0.47,0.16,0.78,0.16,0.94C700.61,311.38,700.61,310.75,700.61,309.97z M701.23,292.29h-0.78v0.31
			h0.78V292.29z M703.9,287.9c0-0.16-0.16-0.31-0.31-0.47l-0.47-0.31c-0.16,0-0.16,0.16-0.31,0.16c0,0.31-0.16,0.31-0.31,0.31
			L703.9,287.9z M704.84,287.75l-0.16-0.16C704.68,287.75,704.84,287.75,704.84,287.75z M705.31,286.18h-0.47v0.47h0.47V286.18z
			 M710.79,282.58l-0.16-0.16c0,0-0.16,0-0.31-0.16c-0.16,0-0.31,0.16-0.31,0.31H710.79z M711.73,362.71h1.25c0,0,0-0.31-0.16-0.47
			c0-0.16-0.16-0.16-0.16-0.31C712.35,362.09,711.73,362.56,711.73,362.71z M714.39,292.75h-0.31v0.47h0.31V292.75z M717.99,261.3
			c0,0-0.16,0-0.16-0.31v-0.31h-2.35c0.47,0,0.94,0.16,1.1,0.31c0.16,0,0.31,0.16,0.31,0.31v0.16c0,0,0.16,0.16,0.47,0.16
			s0.47,0,0.47-0.16L717.99,261.3z M721.28,268.03l-0.47-0.31l-0.16,0.31l0.31,0.16L721.28,268.03z M720.81,261.3h0.78l0.63-0.63
			h-1.41V261.3z M722.53,264.11c-0.16-0.16-0.31-0.31-0.31-0.47h-0.63c-0.31,0.31-0.47,0.47-0.63,0.47c0.16,0,0.31,0.16,0.78,0.16
			c0.31,0.16,0.63,0.16,0.78,0.16V264.11z M722.85,263.17l0.63-0.47c-0.47-0.16-0.63-0.47-0.63-0.78h-0.94
			c-0.16,0-0.31,0.16-0.31,0.31c0,0.31,0.31,0.47,0.63,0.63C722.53,263.02,722.69,263.17,722.85,263.17z M725.2,275.23h-0.94
			c-0.31,0.47-0.47,0.78-0.47,0.94c-0.16,0.31-0.31,0.63-0.47,0.78h0.94c0.16-0.31,0.47-0.63,0.47-0.78L725.2,275.23z
			 M729.11,361.31l0.47,0.16l0.94-1.88l-0.47-0.31L729.11,361.31z M733.5,273.03h-1.25v2.03l1.25-0.16V273.03z M733.18,263.8
			c0-0.31,0.16-0.47,0.16-0.47c0.16-0.16,0.16-0.47,0-0.63c-0.16,0-0.47,0.16-0.94,0.63C733.03,263.49,733.18,263.64,733.18,263.8z
			 M736.16,261.92c0.47-0.16,0.94-0.16,1.57-0.16c0.47-0.31,0.31-0.31,0.63-0.78c0.16,0,0.63-0.16,0.94-0.31
			c0.31-0.16,0.63-0.31,0.94-0.63c-0.16-0.16-0.47-0.31-0.94-0.31s-0.63,0-0.78-0.16c-0.16,0.16-0.31,0.31-0.16,0.47
			c0.16,0.31,0.16,0.47,0,0.63c-0.47,0.16-0.78,0.31-0.94,0.63c-0.31,0.31-0.63,0.31-0.78,0.31c-0.31,0-0.63,0-0.78,0.16
			c-0.47,0-0.63-0.16-0.78-0.16c-0.16-0.16-0.16-0.31,0-0.47c0-0.16-0.16-0.31-0.31-0.47c-0.78,0.16-1.25,0.47-1.57,0.78
			c0.47,0.16,0.63,0.47,0.47,0.78l2.04,0.94v-0.31c0-0.16,0-0.16,0.16-0.16C735.53,262.24,735.69,262.08,736.16,261.92z
			 M733.97,259.73c0.47,0.31,0.94,0.63,1.25,0.63c0.31,0,0.63-0.16,1.1-0.31c0.63-0.16,1.1-0.16,1.41-0.16l-0.63-0.47
			c-0.47-0.16-0.94-0.16-1.25-0.16c-0.31-0.16-0.78-0.16-1.25-0.31C734.12,259.26,733.97,259.58,733.97,259.73z M734.44,271
			c-0.31,0-0.31,0-0.31,0.16v0.47C734.28,271.47,734.44,271.31,734.44,271z M739.92,282.9l0.16,0.16c-0.47,0.78-0.63,0.63-1.25,0.78
			c-0.16,0.16-0.31,0.16-0.63,0.16c-0.16,0-0.31,0-0.63,0.16v0.63c0.47,0.31,0.78,0.31,0.94,0.31c0.31,0.16,0.63,0.16,0.78,0.16
			l1.1-0.31l0.94-0.63C741.48,283.83,739.92,282.9,739.92,282.9z M739.45,278.51l-0.16,1.72l0.63,0.47
			c0.16-0.31,0.31-0.63,0.47-0.78c0.31-0.31,0.31-0.63,0.31-0.78C740.7,278.83,740.39,278.51,739.45,278.51z M742.27,261.61h-0.78
			v0.31h0.78V261.61z M743.36,326.09c0-0.16,0.16-0.31,0.31-0.47c0.16-0.16,0.16-0.31,0.16-0.47l-0.78-0.47
			c-0.16,0.16-0.16,0.16-0.16,0V325C742.74,325.31,742.89,325.62,743.36,326.09z M744.3,284.46c0.16,0,0.47-0.16,0.78-0.31
			c0.63-0.16,0.94-0.31,0.78-0.31l0.63-0.16v-0.78c-0.31-0.31-0.47-0.31-0.47-0.47c-0.16,0-0.31-0.16-0.63-0.31
			c-0.31-0.16-0.63-0.31-0.94-0.31c-0.63,0-1.41,1.25-1.41,1.41C743.05,283.83,743.21,284.46,744.3,284.46z M743.36,280.55
			l1.72,0.31v-0.31l0.16-0.16c0-0.16,0-0.16,0.16-0.16v-0.31h-1.72L743.36,280.55z M746.97,285.4h-0.47
			c-0.47,0.16-0.78,0.31-0.94,0.31c-0.31,0-0.63-0.16-0.94-0.47l-0.16-0.16h-0.47c-0.47,0.63-0.63,1.1-0.63,1.57
			c0.16,0.16,0.47,0.31,0.94,0.47s0.94,0.31,1.1,0.47l0.63-0.47c0-0.47-0.16-0.63-0.47-0.78c0.16,0,0.16-0.16,0.31-0.16v-0.16h0.47
			c0.16-0.31,0.31-0.31,0.31-0.31L746.97,285.4z M747.75,293.69l-0.31-0.16h-0.16l0.16,0.31L747.75,293.69z"/>
		<path class="st0" d="M843.91,275.23l-29.44,33.96l26.62,37.41c1.1,1.56,0.94,2.97-0.47,4.23l-16.29,14.24
			c-0.78,0.63-1.72,0.94-2.51,0.63c-0.94,0-1.72-0.63-2.19-1.41l-8.3-12.68c-2.66-4.23-5.48-8.45-8.46-12.68
			c-3.45-4.7-7.2-9.39-10.96-13.93v37.56c0,2.19-0.94,3.13-2.98,3.29l-20.67,0.47c-1.88,0-3.29-1.41-3.29-3.29
			c0.31-18.47,0.94-37.09,1.88-55.56c0.31-6.57,0.63-13.3,1.1-19.88c0-0.63,0.16-1.72,0.16-2.97h0.16l0.63-0.63
			c0,0-0.16,0-0.78-0.31l0.94-11.43c0.31-3.91,0.47-7.67,0.78-11.58c0.16-2.03,1.25-2.97,3.29-2.97h19.58
			c2.04,0,3.29,1.57,3.29,3.44l-2.35,28.95l31.79-32.87c1.1-1.25,3.29-1.41,4.54-0.16l13.78,13.77
			C845,272.41,845.16,273.82,843.91,275.23z M771.71,346.12c0-0.16-0.16-0.16-0.16-0.16c-0.16,0-0.31,0.16-0.31,0.31
			c0,0.31,0.16,0.31,0.31,0.31C771.55,346.28,771.71,346.12,771.71,346.12z M773.59,277.73c-0.16,0-0.47-0.16-0.47-0.16
			c-0.16-0.16-0.31-0.16-0.31-0.16c-0.47,0-0.63,0.16-0.63,0.63c0,0.16,0,0.31,0.16,0.31l0.47,0.31c0-0.16,0.31-0.31,0.78-0.47
			V277.73z M785.96,320.61c0-0.47-1.57-0.94-1.88-0.94c-0.78,0-1.88,1.25-1.88,1.72l0.31,0.63c0.16,0.31,0.63,0.47,1.25,0.47
			C784.55,322.49,785.96,321.55,785.96,320.61z M783.46,334.7h-0.94l-0.31,0.78h0.63c0.16,0.16,0.31,0.16,0.63,0.16V334.7z
			 M805.07,292.6h-0.47c-0.16,0-0.16-0.16-0.16-0.16l-0.47,0.31c0.16,0.31,0.31,0.47,0.47,0.63h0.31c0.16,0,0.31-0.16,0.31-0.16
			V292.6z M805.69,284.62c-0.16,0-0.16-0.16-0.31-0.31c-0.16-0.47-0.31-0.47-0.63-0.31h-0.31c0.16,0.63,0.47,0.94,0.78,0.94
			L805.69,284.62z M807.89,288.22c-0.31,0-0.31,0-0.47-0.16h-0.47c0,0.16-0.16,0.16-0.16,0.31c-0.16,0-0.16,0.16-0.16,0.31
			c0,0.31,0.16,0.47,0.47,0.63c0.47-0.16,0.63-0.31,0.78-0.31V288.22z M809.3,338.61l-0.16-0.47h-0.31l0.16,0.47H809.3z
			 M809.45,285.71h1.1c0-0.16,0.16-0.31,0.31-0.47c0.16-0.16,0.16-0.31,0-0.31h-1.41V285.71z M811.65,320.77h-0.63
			c-0.31,0-0.63,0.16-0.78,0.16l0.47,0.94C811.33,321.71,811.65,321.4,811.65,320.77z M811.18,305.75h0.94
			c0-0.47-0.31-0.78-0.94-0.78V305.75z M812.27,326.56l1.25-0.63l-0.31-0.63l-0.94,0.31C811.96,325.93,811.96,326.25,812.27,326.56z
			 M814.78,325.93l-0.63-0.63l-0.63,0.31l0.63,0.47L814.78,325.93z M813.84,311.22l0.63,1.1c0.63-0.16,0.94-0.47,0.94-1.1H813.84z
			 M819.16,329.85c0.31,0.94,2.66,0.78,2.35-0.31l-0.16-0.16c0,0-0.16,0-0.31-0.16c-0.16-0.16-0.31-0.16-0.31-0.16
			c0-0.16-0.16-0.16-0.47-0.31l-0.94,0.31l-0.16,0.16C818.85,329.38,818.85,329.69,819.16,329.85z M820.42,283.52h-0.78
			c-0.16,0-0.31,0-0.47-0.16c0,0.31-0.16,0.31,0,0.47v0.31c0.16-0.16,0.47-0.31,0.78-0.31C820.1,283.83,820.42,283.68,820.42,283.52
			z M819.32,334.07l0.63,0.63l0.63-0.16l-0.63-0.78L819.32,334.07z M820.57,347.85l-0.47-0.31h-0.16l0.31,0.47L820.57,347.85z
			 M821.98,340.33l-0.63-0.31l-1.1,1.57c0.47,0,0.78,0.16,0.94,0.47c0.16-0.31,0.16-0.63,0.31-0.63v-0.16
			c0.16,0,0.16-0.16,0.16-0.16c0.31-0.16,0.31-0.47,0.47-0.63L821.98,340.33z M822.29,273.97c0,0.16,0,0.31,0.16,0.31
			c0.16,0.31,0.16,0.31,0.16,0.16C823.08,274.29,822.61,274.13,822.29,273.97z M824.02,338.61h0.47c0.63,0,1.1-0.47,0.47-1.1
			C824.33,337.52,824.02,337.83,824.02,338.61z M826.05,273.5c-0.31,0-0.63,0-0.63,0.16c0-0.16,0,0-0.47,0.31h0.63
			c0,0,0-0.16,0.16-0.31C825.74,273.66,825.9,273.66,826.05,273.5z M826.21,339.39l1.1-0.47c0-0.47-0.16-0.63-0.63-0.78
			c-0.16,0.16-0.31,0.31-0.63,0.47C825.9,338.93,826.05,339.08,826.21,339.39z M830.6,277.1c0-0.16-0.47-0.78-1.1-0.78
			c-0.63,0-1.72,0.16-1.72,0.78l0.16,0.63c0.31,0.16,0.47,0.31,0.94,0.31S830.6,277.73,830.6,277.1z M828.56,273.97l0.78,0.31
			l0.16-0.16l-0.78-0.16H828.56z M829.97,280.55c-0.16,0-0.16,0-0.31-0.16h-0.78c-0.16,0.16-0.31,0.16-0.31,0.47h0.94L829.97,280.55
			z M832.95,283.36c0,0-0.16,0-0.47-0.31c-0.16-0.16-0.31-0.16-0.47-0.16c-0.47,0-1.41,0.47-1.57,0.63v0.47l0.78,0.16
			c0.16-0.16,0.47-0.16,0.78-0.16c0.31,0,0.63,0,0.94-0.16V283.36z M832.95,271.63l-0.31-0.31h-1.1c-0.47,0.31-0.31,0.63,0.16,0.78
			h0.63C832.63,272.1,832.95,271.94,832.95,271.63z M835.29,347.53c0.16-0.16,0.16-0.16,0.16-0.31c0-0.31-0.16-0.31-0.31-0.31
			C834.67,346.91,834.82,347.85,835.29,347.53z"/>
	</g>
</g>
</svg>
