<svg xmlns="http://www.w3.org/2000/svg" viewBox="0 0 460.39 148.53"><defs><style>.cls-1{fill:#053699;}.cls-2{fill:#f60;}</style></defs><title>Asset 1</title><g id="Layer_2" data-name="Layer 2"><g id="Layer_1-2" data-name="Layer 1"><path class="cls-1" d="M14.46,6.8V70.11H53.89V83.47H0V6.8Z"/><path class="cls-1" d="M114.56,56.53c0,15.55-10.62,28.15-28.15,28.15s-28-12.6-28-28.15S69.11,28.38,86.3,28.38,114.56,41.09,114.56,56.53Zm-42.82,0c0,8.21,4.93,15.88,14.67,15.88s14.68-7.67,14.68-15.88-5.69-16-14.68-16C76.78,40.54,71.74,48.42,71.74,56.53Z"/><path class="cls-1" d="M166.15,24,176,31.45l-6,7.66c4.16,4.71,5.7,10.08,5.7,16,0,6.69-2.52,16.1-11.39,20.16,9,4.49,11.17,10.95,11.17,17.85,0,14.89-11.39,24.09-27.06,24.09S121,107.68,121,93.11h13.26c0,7,6.46,11.61,14.12,11.61s13.69-4.16,13.69-11.61-7-10.84-13.69-10.84C131.54,82.27,121,72,121,55.1s12.27-27.38,27.38-27.38c4.28,0,8.66.55,12.38,3.07ZM134.28,55.1c0,9.42,6.35,15,14.12,15s14-5.7,14-15-6.35-15.22-14-15.22S134.28,45.69,134.28,55.1Z"/><path class="cls-1" d="M237.88,56.53c0,15.55-10.62,28.15-28.14,28.15s-28-12.6-28-28.15,10.73-28.15,27.93-28.15S237.88,41.09,237.88,56.53Zm-42.82,0c0,8.21,4.93,15.88,14.68,15.88s14.67-7.67,14.67-15.88-5.69-16-14.67-16C200.1,40.54,195.06,48.42,195.06,56.53Z"/><path class="cls-2" d="M249,75.9c0-5.48.22-11.83.76-19.17h1c5.58,13.15,10.4,18.51,17.41,18.51,7.56,0,12.27-4.6,12.27-11.93,0-4.06-1.31-7.12-5.15-10.08a47,47,0,0,0-4.71-3.4l-6.13-3.61c-5.26-3-7.89-4.49-11.72-7.89a17,17,0,0,1-5.48-12.92,17.91,17.91,0,0,1,6.47-14.24c4.38-3.61,10.07-5.48,17.08-5.48,3.29,0,8.87,1,16.76,3.07-.55,7-.77,13-.77,18.07h-1a38.24,38.24,0,0,0-4.17-8.76c-2.95-5-6.46-7.56-12.81-8-6.68,0-11.39,4.27-11.39,10.4,0,3.18,1.2,5.81,4.16,8.32a59.4,59.4,0,0,0,9.31,6.36l4,2.41c.66.33,2,1.09,3.84,2.3a20.27,20.27,0,0,1,3.83,2.84c1.42,1.32,4.82,4.39,5.81,6.68a22.69,22.69,0,0,1,2.19,9,19.43,19.43,0,0,1-6.69,15.33c-4.49,3.94-10.18,5.91-17.3,5.91A42.08,42.08,0,0,1,249,75.9Z"/><path class="cls-2" d="M334.22,64.62l.87.55c-2.95,9.09-10,14.45-18,14.45a18.81,18.81,0,0,1-14.46-6.13c-3.61-4-5.47-9.42-5.47-15.88,0-7.12,2.08-12.92,6.13-17.52A20,20,0,0,1,319,33.19c5,0,9,1.31,11.83,4.05a12.09,12.09,0,0,1,4.27,9.09c0,2.08-.76,3.17-2.41,3.17H308v2c0,11.93,5.37,18.72,13.8,18.72A16,16,0,0,0,334.22,64.62ZM308.48,46h14.46v-.33c0-5.69-2.31-9-6.25-9C312.09,36.69,309.35,39.76,308.48,46Z"/><path class="cls-2" d="M340.79,76.89c5.36-1,6.57-2.3,6.57-6.58V47.64c0-4.82-1.64-6.68-6.57-7.12V39.43a175.06,175.06,0,0,0,16.75-5.7l1,.22,1,13.15h.76c2.08-8.22,7.34-13.91,13.14-13.91,2.63,0,3.95,2.08,3.95,6.35,0,2.3-1.1,5.26-2.3,6h-.77a11.44,11.44,0,0,0-4.05-1c-4.93,0-8.44,3.06-10.73,9.09V70.31c0,2.19.54,3.73,1.53,4.6s3.28,1.43,6.9,2v1c-9.75-.33-18.84-.33-27.16,0Z"/><path class="cls-2" d="M401.35,70.31c0,4.28,1.21,5.37,6.47,6.58v1c-8.33-.33-16.65-.33-25.09,0v-1c5.37-1,6.58-2.3,6.58-6.58V47.64c0-4.82-1.65-6.68-6.58-7.12V39.43a166.8,166.8,0,0,0,17.64-5.7l1,.22Zm-13.58-51.8a7.29,7.29,0,0,1,14.57,0,7.29,7.29,0,0,1-14.57,0Z"/><path class="cls-2" d="M455.9,2.85c3,1.86,4.49,3.94,4.49,6.46,0,3-2,5.48-5.81,7.78h-1c-3.4-8.88-7.34-13.26-12.05-13.26-5.15,0-8.43,5.92-8.43,16.54V34.83h14.12v3.5H433.12v32c0,2.19.54,3.73,1.53,4.6s3.28,1.43,6.9,2v1c-9.09-.33-18.07-.33-27.16,0v-1c5.36-1,6.57-2.3,6.57-6.58v-32l-7.67-.43V35.38l7.67-.55V28.59c0-8.77,2.19-15.67,6.46-20.81S437.61,0,444.94,0A20.15,20.15,0,0,1,455.9,2.85Z"/><path class="cls-2" d="M313.69,108.52c-15.59-47.83-83.93-7.58-111.12,5.8-21,10.35-44.16,19.46-68,17.18a72,72,0,0,1-27-8.21,60.61,60.61,0,0,1-13.6-9.76c-2.54-2.48-8-7.53-8.88-11-.49-2-1.46-9.25-3.39-10.24-.88-.45.57,5.69.69,6.15,4.31,17.77,12.26,31.89,28.64,41.1,21.06,11.85,45.46,10.86,67.89,3.58,23.58-7.65,44.44-21.42,67.33-30.7,11.3-4.59,23.3-8.29,35.53-9.1,10.69-.72,29,1.75,33,14.09.59,1.81,1,5,1.88,2.74s-2.17-9.37-2.91-11.62Z"/></g></g></svg>